<svg width="353" height="59" viewBox="0 0 353 59" fill="none" xmlns="http://www.w3.org/2000/svg">
<rect width="353" height="59" rx="15" fill="#E16666"/>
<path d="M151.475 14.3H159.733C161.353 14.3 162.875 14.5175 164.3 14.9525C165.725 15.3875 166.88 16.1225 167.765 17.1575C168.65 18.1925 169.093 19.6325 169.093 21.4775C169.093 22.7225 168.845 23.855 168.35 24.875C167.87 25.88 167.27 26.6975 166.55 27.3275C165.83 27.9575 165.118 28.3325 164.413 28.4525C164.983 28.4975 165.613 28.6775 166.303 28.9925C167.008 29.3075 167.675 29.7575 168.305 30.3425C168.95 30.9275 169.475 31.6625 169.88 32.5475C170.3 33.4175 170.51 34.4525 170.51 35.6525C170.51 37.2725 170.18 38.7125 169.52 39.9725C168.86 41.2325 167.855 42.2225 166.505 42.9425C165.17 43.6475 163.475 44 161.42 44H151.475V14.3ZM155.3 40.7825H161.038C162.463 40.7825 163.565 40.535 164.345 40.04C165.14 39.53 165.695 38.87 166.01 38.06C166.34 37.25 166.505 36.3875 166.505 35.4725C166.505 33.9575 166.01 32.735 165.02 31.805C164.03 30.875 162.598 30.41 160.723 30.41H155.3V40.7825ZM155.3 27.26H160.273C161.413 27.26 162.35 27.0125 163.085 26.5175C163.82 26.0075 164.368 25.3625 164.728 24.5825C165.088 23.7875 165.268 22.97 165.268 22.13C165.268 20.405 164.758 19.205 163.738 18.53C162.733 17.855 161.383 17.5175 159.688 17.5175H155.3V27.26ZM190.163 44V40.4C190.043 40.775 189.69 41.2925 189.105 41.9525C188.535 42.6125 187.748 43.2125 186.743 43.7525C185.753 44.2775 184.583 44.54 183.233 44.54C181.523 44.54 179.97 44.135 178.575 43.325C177.195 42.515 176.093 41.3825 175.268 39.9275C174.458 38.4575 174.053 36.74 174.053 34.775C174.053 32.81 174.458 31.1 175.268 29.645C176.093 28.175 177.195 27.035 178.575 26.225C179.97 25.4 181.523 24.9875 183.233 24.9875C184.568 24.9875 185.723 25.2275 186.698 25.7075C187.688 26.1875 188.475 26.7425 189.06 27.3725C189.66 28.0025 190.013 28.5425 190.118 28.9925V25.5275H193.988V44H190.163ZM177.923 34.775C177.923 36.11 178.215 37.265 178.8 38.24C179.385 39.215 180.143 39.9725 181.073 40.5125C182.018 41.0375 183.023 41.3 184.088 41.3C185.228 41.3 186.248 41.03 187.148 40.49C188.048 39.95 188.76 39.1925 189.285 38.2175C189.81 37.2275 190.073 36.08 190.073 34.775C190.073 33.47 189.81 32.33 189.285 31.355C188.76 30.365 188.048 29.6 187.148 29.06C186.248 28.505 185.228 28.2275 184.088 28.2275C183.023 28.2275 182.018 28.4975 181.073 29.0375C180.143 29.5775 179.385 30.335 178.8 31.31C178.215 32.285 177.923 33.44 177.923 34.775ZM209.546 24.9875C210.761 24.9875 211.939 25.2425 213.079 25.7525C214.234 26.2625 215.179 27.0725 215.914 28.1825C216.664 29.2775 217.039 30.71 217.039 32.48V44H213.079V33.245C213.079 31.415 212.651 30.0875 211.796 29.2625C210.941 28.4225 209.839 28.0025 208.489 28.0025C207.604 28.0025 206.749 28.2575 205.924 28.7675C205.114 29.2625 204.446 29.9525 203.921 30.8375C203.396 31.7075 203.134 32.6975 203.134 33.8075V44H199.219V25.5275H203.134V28.8125C203.269 28.3025 203.636 27.7475 204.236 27.1475C204.836 26.5475 205.601 26.0375 206.531 25.6175C207.461 25.1975 208.466 24.9875 209.546 24.9875Z" fill="#E7E7E7"/>
</svg>
