<svg width="341" height="59" viewBox="0 0 341 59" fill="none" xmlns="http://www.w3.org/2000/svg">
<rect x="2" y="2" width="337" height="55" rx="13" stroke="#485696" stroke-width="4"/>
<path d="M140.475 13.3H148.733C150.353 13.3 151.875 13.5175 153.3 13.9525C154.725 14.3875 155.88 15.1225 156.765 16.1575C157.65 17.1925 158.093 18.6325 158.093 20.4775C158.093 21.7225 157.845 22.855 157.35 23.875C156.87 24.88 156.27 25.6975 155.55 26.3275C154.83 26.9575 154.118 27.3325 153.413 27.4525C153.983 27.4975 154.613 27.6775 155.303 27.9925C156.008 28.3075 156.675 28.7575 157.305 29.3425C157.95 29.9275 158.475 30.6625 158.88 31.5475C159.3 32.4175 159.51 33.4525 159.51 34.6525C159.51 36.2725 159.18 37.7125 158.52 38.9725C157.86 40.2325 156.855 41.2225 155.505 41.9425C154.17 42.6475 152.475 43 150.42 43H140.475V13.3ZM144.3 39.7825H150.038C151.463 39.7825 152.565 39.535 153.345 39.04C154.14 38.53 154.695 37.87 155.01 37.06C155.34 36.25 155.505 35.3875 155.505 34.4725C155.505 32.9575 155.01 31.735 154.02 30.805C153.03 29.875 151.598 29.41 149.723 29.41H144.3V39.7825ZM144.3 26.26H149.273C150.413 26.26 151.35 26.0125 152.085 25.5175C152.82 25.0075 153.368 24.3625 153.728 23.5825C154.088 22.7875 154.268 21.97 154.268 21.13C154.268 19.405 153.758 18.205 152.738 17.53C151.733 16.855 150.383 16.5175 148.688 16.5175H144.3V26.26ZM179.163 43V39.4C179.043 39.775 178.69 40.2925 178.105 40.9525C177.535 41.6125 176.748 42.2125 175.743 42.7525C174.753 43.2775 173.583 43.54 172.233 43.54C170.523 43.54 168.97 43.135 167.575 42.325C166.195 41.515 165.093 40.3825 164.268 38.9275C163.458 37.4575 163.053 35.74 163.053 33.775C163.053 31.81 163.458 30.1 164.268 28.645C165.093 27.175 166.195 26.035 167.575 25.225C168.97 24.4 170.523 23.9875 172.233 23.9875C173.568 23.9875 174.723 24.2275 175.698 24.7075C176.688 25.1875 177.475 25.7425 178.06 26.3725C178.66 27.0025 179.013 27.5425 179.118 27.9925V24.5275H182.988V43H179.163ZM166.923 33.775C166.923 35.11 167.215 36.265 167.8 37.24C168.385 38.215 169.143 38.9725 170.073 39.5125C171.018 40.0375 172.023 40.3 173.088 40.3C174.228 40.3 175.248 40.03 176.148 39.49C177.048 38.95 177.76 38.1925 178.285 37.2175C178.81 36.2275 179.073 35.08 179.073 33.775C179.073 32.47 178.81 31.33 178.285 30.355C177.76 29.365 177.048 28.6 176.148 28.06C175.248 27.505 174.228 27.2275 173.088 27.2275C172.023 27.2275 171.018 27.4975 170.073 28.0375C169.143 28.5775 168.385 29.335 167.8 30.31C167.215 31.285 166.923 32.44 166.923 33.775ZM198.546 23.9875C199.761 23.9875 200.939 24.2425 202.079 24.7525C203.234 25.2625 204.179 26.0725 204.914 27.1825C205.664 28.2775 206.039 29.71 206.039 31.48V43H202.079V32.245C202.079 30.415 201.651 29.0875 200.796 28.2625C199.941 27.4225 198.839 27.0025 197.489 27.0025C196.604 27.0025 195.749 27.2575 194.924 27.7675C194.114 28.2625 193.446 28.9525 192.921 29.8375C192.396 30.7075 192.134 31.6975 192.134 32.8075V43H188.219V24.5275H192.134V27.8125C192.269 27.3025 192.636 26.7475 193.236 26.1475C193.836 25.5475 194.601 25.0375 195.531 24.6175C196.461 24.1975 197.466 23.9875 198.546 23.9875Z" fill="#485696"/>
</svg>
