<svg width="353" height="59" viewBox="0 0 353 59" fill="none" xmlns="http://www.w3.org/2000/svg">
<rect x="0.5" y="0.5" width="352" height="58" rx="14.5" fill="#485696" stroke="#485696"/>
<mask id="path-2-outside-1_7_9" maskUnits="userSpaceOnUse" x="106" y="11" width="144" height="43" fill="black">
<rect fill="white" x="106" y="11" width="144" height="43"/>
<path d="M122.898 39.7375C124.743 39.7375 126.34 39.4825 127.69 38.9725C129.055 38.4625 130.023 37.9675 130.593 37.4875L132.28 40.795C131.605 41.395 130.428 42.0025 128.748 42.6175C127.083 43.2325 125.08 43.54 122.74 43.54C120.55 43.54 118.518 43.15 116.643 42.37C114.768 41.59 113.125 40.5025 111.715 39.1075C110.32 37.7125 109.225 36.085 108.43 34.225C107.65 32.365 107.26 30.355 107.26 28.195C107.26 26.035 107.65 24.0175 108.43 22.1425C109.21 20.2675 110.298 18.6325 111.693 17.2375C113.103 15.8275 114.745 14.7325 116.62 13.9525C118.51 13.1575 120.55 12.76 122.74 12.76C125.08 12.76 127.083 13.0675 128.748 13.6825C130.428 14.2975 131.605 14.905 132.28 15.505L130.593 18.8125C130.023 18.3175 129.055 17.8225 127.69 17.3275C126.34 16.8175 124.743 16.5625 122.898 16.5625C121.218 16.5625 119.68 16.8475 118.285 17.4175C116.89 17.9875 115.675 18.7975 114.64 19.8475C113.62 20.8825 112.825 22.105 112.255 23.515C111.7 24.925 111.423 26.4625 111.423 28.1275C111.423 29.8075 111.7 31.36 112.255 32.785C112.825 34.195 113.62 35.425 114.64 36.475C115.675 37.51 116.89 38.3125 118.285 38.8825C119.68 39.4525 121.218 39.7375 122.898 39.7375ZM147.258 23.9875C148.473 23.9875 149.65 24.2425 150.79 24.7525C151.945 25.2625 152.89 26.0725 153.625 27.1825C154.375 28.2775 154.75 29.71 154.75 31.48V43H150.79V32.245C150.79 30.415 150.37 29.0875 149.53 28.2625C148.705 27.4225 147.618 27.0025 146.268 27.0025C145.368 27.0025 144.505 27.2575 143.68 27.7675C142.855 28.2625 142.173 28.9525 141.633 29.8375C141.108 30.7075 140.845 31.6975 140.845 32.8075V43H136.885V12.04H140.845V27.8125C140.98 27.3025 141.34 26.7475 141.925 26.1475C142.525 25.5475 143.29 25.0375 144.22 24.6175C145.15 24.1975 146.163 23.9875 147.258 23.9875ZM174.892 43V39.4C174.772 39.775 174.42 40.2925 173.835 40.9525C173.265 41.6125 172.477 42.2125 171.472 42.7525C170.482 43.2775 169.312 43.54 167.962 43.54C166.252 43.54 164.7 43.135 163.305 42.325C161.925 41.515 160.822 40.3825 159.997 38.9275C159.187 37.4575 158.782 35.74 158.782 33.775C158.782 31.81 159.187 30.1 159.997 28.645C160.822 27.175 161.925 26.035 163.305 25.225C164.7 24.4 166.252 23.9875 167.962 23.9875C169.297 23.9875 170.452 24.2275 171.427 24.7075C172.417 25.1875 173.205 25.7425 173.79 26.3725C174.39 27.0025 174.742 27.5425 174.847 27.9925V24.5275H178.717V43H174.892ZM162.652 33.775C162.652 35.11 162.945 36.265 163.53 37.24C164.115 38.215 164.872 38.9725 165.802 39.5125C166.747 40.0375 167.752 40.3 168.817 40.3C169.957 40.3 170.977 40.03 171.877 39.49C172.777 38.95 173.49 38.1925 174.015 37.2175C174.54 36.2275 174.802 35.08 174.802 33.775C174.802 32.47 174.54 31.33 174.015 30.355C173.49 29.365 172.777 28.6 171.877 28.06C170.977 27.505 169.957 27.2275 168.817 27.2275C167.752 27.2275 166.747 27.4975 165.802 28.0375C164.872 28.5775 164.115 29.335 163.53 30.31C162.945 31.285 162.652 32.44 162.652 33.775ZM194.276 23.9875C195.491 23.9875 196.668 24.2425 197.808 24.7525C198.963 25.2625 199.908 26.0725 200.643 27.1825C201.393 28.2775 201.768 29.71 201.768 31.48V43H197.808V32.245C197.808 30.415 197.381 29.0875 196.526 28.2625C195.671 27.4225 194.568 27.0025 193.218 27.0025C192.333 27.0025 191.478 27.2575 190.653 27.7675C189.843 28.2625 189.176 28.9525 188.651 29.8375C188.126 30.7075 187.863 31.6975 187.863 32.8075V43H183.948V24.5275H187.863V27.8125C187.998 27.3025 188.366 26.7475 188.966 26.1475C189.566 25.5475 190.331 25.0375 191.261 24.6175C192.191 24.1975 193.196 23.9875 194.276 23.9875ZM215.708 52.8775C214.253 52.8775 212.933 52.7275 211.748 52.4275C210.578 52.1275 209.55 51.7 208.665 51.145C207.795 50.605 207.098 49.9675 206.573 49.2325L209.138 46.78C209.423 47.17 209.805 47.5825 210.285 48.0175C210.78 48.4675 211.448 48.85 212.288 49.165C213.128 49.48 214.223 49.6375 215.573 49.6375C216.893 49.6375 218.01 49.3525 218.925 48.7825C219.84 48.2275 220.538 47.47 221.018 46.51C221.498 45.55 221.738 44.47 221.738 43.27V42.6625H225.563V43.5175C225.563 45.5575 225.12 47.2675 224.235 48.6475C223.365 50.0425 222.188 51.0925 220.703 51.7975C219.218 52.5175 217.553 52.8775 215.708 52.8775ZM221.738 43V39.4C221.618 39.775 221.265 40.2925 220.68 40.9525C220.11 41.6125 219.323 42.2125 218.318 42.7525C217.328 43.2775 216.158 43.54 214.808 43.54C213.098 43.54 211.545 43.135 210.15 42.325C208.77 41.515 207.668 40.3825 206.843 38.9275C206.033 37.4575 205.628 35.74 205.628 33.775C205.628 31.81 206.033 30.1 206.843 28.645C207.668 27.175 208.77 26.035 210.15 25.225C211.545 24.4 213.098 23.9875 214.808 23.9875C216.143 23.9875 217.298 24.2275 218.273 24.7075C219.263 25.1875 220.05 25.7425 220.635 26.3725C221.235 27.0025 221.588 27.5425 221.693 27.9925V24.5275H225.563V43H221.738ZM209.498 33.775C209.498 35.11 209.79 36.265 210.375 37.24C210.96 38.215 211.718 38.9725 212.648 39.5125C213.593 40.0375 214.598 40.3 215.663 40.3C216.803 40.3 217.823 40.03 218.723 39.49C219.623 38.95 220.335 38.1925 220.86 37.2175C221.385 36.2275 221.648 35.08 221.648 33.775C221.648 32.47 221.385 31.33 220.86 30.355C220.335 29.365 219.623 28.6 218.723 28.06C217.823 27.505 216.803 27.2275 215.663 27.2275C214.598 27.2275 213.593 27.4975 212.648 28.0375C211.718 28.5775 210.96 29.335 210.375 30.31C209.79 31.285 209.498 32.44 209.498 33.775ZM233.422 34.5625C233.437 35.6725 233.677 36.685 234.142 37.6C234.607 38.515 235.297 39.2425 236.212 39.7825C237.142 40.3225 238.282 40.5925 239.632 40.5925C240.772 40.5925 241.74 40.4275 242.535 40.0975C243.345 39.7525 244.005 39.3475 244.515 38.8825C245.025 38.4025 245.392 37.975 245.617 37.6L247.53 39.9625C247.035 40.6825 246.427 41.3125 245.707 41.8525C245.002 42.3925 244.14 42.805 243.12 43.09C242.1 43.39 240.855 43.54 239.385 43.54C237.405 43.54 235.687 43.12 234.232 42.28C232.792 41.425 231.682 40.2475 230.902 38.7475C230.122 37.2325 229.732 35.5 229.732 33.55C229.732 31.75 230.1 30.13 230.835 28.69C231.57 27.235 232.635 26.0875 234.03 25.2475C235.44 24.4075 237.135 23.9875 239.115 23.9875C240.93 23.9875 242.505 24.37 243.84 25.135C245.19 25.885 246.232 26.95 246.967 28.33C247.717 29.71 248.092 31.36 248.092 33.28C248.092 33.4 248.085 33.6175 248.07 33.9325C248.055 34.2325 248.04 34.4425 248.025 34.5625H233.422ZM244.357 31.615C244.342 31 244.162 30.325 243.817 29.59C243.487 28.855 242.947 28.225 242.197 27.7C241.447 27.175 240.435 26.9125 239.16 26.9125C237.84 26.9125 236.775 27.1675 235.965 27.6775C235.17 28.1875 234.585 28.81 234.21 29.545C233.835 30.265 233.617 30.955 233.557 31.615H244.357Z"/>
</mask>
<path d="M122.898 39.7375C124.743 39.7375 126.34 39.4825 127.69 38.9725C129.055 38.4625 130.023 37.9675 130.593 37.4875L132.28 40.795C131.605 41.395 130.428 42.0025 128.748 42.6175C127.083 43.2325 125.08 43.54 122.74 43.54C120.55 43.54 118.518 43.15 116.643 42.37C114.768 41.59 113.125 40.5025 111.715 39.1075C110.32 37.7125 109.225 36.085 108.43 34.225C107.65 32.365 107.26 30.355 107.26 28.195C107.26 26.035 107.65 24.0175 108.43 22.1425C109.21 20.2675 110.298 18.6325 111.693 17.2375C113.103 15.8275 114.745 14.7325 116.62 13.9525C118.51 13.1575 120.55 12.76 122.74 12.76C125.08 12.76 127.083 13.0675 128.748 13.6825C130.428 14.2975 131.605 14.905 132.28 15.505L130.593 18.8125C130.023 18.3175 129.055 17.8225 127.69 17.3275C126.34 16.8175 124.743 16.5625 122.898 16.5625C121.218 16.5625 119.68 16.8475 118.285 17.4175C116.89 17.9875 115.675 18.7975 114.64 19.8475C113.62 20.8825 112.825 22.105 112.255 23.515C111.7 24.925 111.423 26.4625 111.423 28.1275C111.423 29.8075 111.7 31.36 112.255 32.785C112.825 34.195 113.62 35.425 114.64 36.475C115.675 37.51 116.89 38.3125 118.285 38.8825C119.68 39.4525 121.218 39.7375 122.898 39.7375ZM147.258 23.9875C148.473 23.9875 149.65 24.2425 150.79 24.7525C151.945 25.2625 152.89 26.0725 153.625 27.1825C154.375 28.2775 154.75 29.71 154.75 31.48V43H150.79V32.245C150.79 30.415 150.37 29.0875 149.53 28.2625C148.705 27.4225 147.618 27.0025 146.268 27.0025C145.368 27.0025 144.505 27.2575 143.68 27.7675C142.855 28.2625 142.173 28.9525 141.633 29.8375C141.108 30.7075 140.845 31.6975 140.845 32.8075V43H136.885V12.04H140.845V27.8125C140.98 27.3025 141.34 26.7475 141.925 26.1475C142.525 25.5475 143.29 25.0375 144.22 24.6175C145.15 24.1975 146.163 23.9875 147.258 23.9875ZM174.892 43V39.4C174.772 39.775 174.42 40.2925 173.835 40.9525C173.265 41.6125 172.477 42.2125 171.472 42.7525C170.482 43.2775 169.312 43.54 167.962 43.54C166.252 43.54 164.7 43.135 163.305 42.325C161.925 41.515 160.822 40.3825 159.997 38.9275C159.187 37.4575 158.782 35.74 158.782 33.775C158.782 31.81 159.187 30.1 159.997 28.645C160.822 27.175 161.925 26.035 163.305 25.225C164.7 24.4 166.252 23.9875 167.962 23.9875C169.297 23.9875 170.452 24.2275 171.427 24.7075C172.417 25.1875 173.205 25.7425 173.79 26.3725C174.39 27.0025 174.742 27.5425 174.847 27.9925V24.5275H178.717V43H174.892ZM162.652 33.775C162.652 35.11 162.945 36.265 163.53 37.24C164.115 38.215 164.872 38.9725 165.802 39.5125C166.747 40.0375 167.752 40.3 168.817 40.3C169.957 40.3 170.977 40.03 171.877 39.49C172.777 38.95 173.49 38.1925 174.015 37.2175C174.54 36.2275 174.802 35.08 174.802 33.775C174.802 32.47 174.54 31.33 174.015 30.355C173.49 29.365 172.777 28.6 171.877 28.06C170.977 27.505 169.957 27.2275 168.817 27.2275C167.752 27.2275 166.747 27.4975 165.802 28.0375C164.872 28.5775 164.115 29.335 163.53 30.31C162.945 31.285 162.652 32.44 162.652 33.775ZM194.276 23.9875C195.491 23.9875 196.668 24.2425 197.808 24.7525C198.963 25.2625 199.908 26.0725 200.643 27.1825C201.393 28.2775 201.768 29.71 201.768 31.48V43H197.808V32.245C197.808 30.415 197.381 29.0875 196.526 28.2625C195.671 27.4225 194.568 27.0025 193.218 27.0025C192.333 27.0025 191.478 27.2575 190.653 27.7675C189.843 28.2625 189.176 28.9525 188.651 29.8375C188.126 30.7075 187.863 31.6975 187.863 32.8075V43H183.948V24.5275H187.863V27.8125C187.998 27.3025 188.366 26.7475 188.966 26.1475C189.566 25.5475 190.331 25.0375 191.261 24.6175C192.191 24.1975 193.196 23.9875 194.276 23.9875ZM215.708 52.8775C214.253 52.8775 212.933 52.7275 211.748 52.4275C210.578 52.1275 209.55 51.7 208.665 51.145C207.795 50.605 207.098 49.9675 206.573 49.2325L209.138 46.78C209.423 47.17 209.805 47.5825 210.285 48.0175C210.78 48.4675 211.448 48.85 212.288 49.165C213.128 49.48 214.223 49.6375 215.573 49.6375C216.893 49.6375 218.01 49.3525 218.925 48.7825C219.84 48.2275 220.538 47.47 221.018 46.51C221.498 45.55 221.738 44.47 221.738 43.27V42.6625H225.563V43.5175C225.563 45.5575 225.12 47.2675 224.235 48.6475C223.365 50.0425 222.188 51.0925 220.703 51.7975C219.218 52.5175 217.553 52.8775 215.708 52.8775ZM221.738 43V39.4C221.618 39.775 221.265 40.2925 220.68 40.9525C220.11 41.6125 219.323 42.2125 218.318 42.7525C217.328 43.2775 216.158 43.54 214.808 43.54C213.098 43.54 211.545 43.135 210.15 42.325C208.77 41.515 207.668 40.3825 206.843 38.9275C206.033 37.4575 205.628 35.74 205.628 33.775C205.628 31.81 206.033 30.1 206.843 28.645C207.668 27.175 208.77 26.035 210.15 25.225C211.545 24.4 213.098 23.9875 214.808 23.9875C216.143 23.9875 217.298 24.2275 218.273 24.7075C219.263 25.1875 220.05 25.7425 220.635 26.3725C221.235 27.0025 221.588 27.5425 221.693 27.9925V24.5275H225.563V43H221.738ZM209.498 33.775C209.498 35.11 209.79 36.265 210.375 37.24C210.96 38.215 211.718 38.9725 212.648 39.5125C213.593 40.0375 214.598 40.3 215.663 40.3C216.803 40.3 217.823 40.03 218.723 39.49C219.623 38.95 220.335 38.1925 220.86 37.2175C221.385 36.2275 221.648 35.08 221.648 33.775C221.648 32.47 221.385 31.33 220.86 30.355C220.335 29.365 219.623 28.6 218.723 28.06C217.823 27.505 216.803 27.2275 215.663 27.2275C214.598 27.2275 213.593 27.4975 212.648 28.0375C211.718 28.5775 210.96 29.335 210.375 30.31C209.79 31.285 209.498 32.44 209.498 33.775ZM233.422 34.5625C233.437 35.6725 233.677 36.685 234.142 37.6C234.607 38.515 235.297 39.2425 236.212 39.7825C237.142 40.3225 238.282 40.5925 239.632 40.5925C240.772 40.5925 241.74 40.4275 242.535 40.0975C243.345 39.7525 244.005 39.3475 244.515 38.8825C245.025 38.4025 245.392 37.975 245.617 37.6L247.53 39.9625C247.035 40.6825 246.427 41.3125 245.707 41.8525C245.002 42.3925 244.14 42.805 243.12 43.09C242.1 43.39 240.855 43.54 239.385 43.54C237.405 43.54 235.687 43.12 234.232 42.28C232.792 41.425 231.682 40.2475 230.902 38.7475C230.122 37.2325 229.732 35.5 229.732 33.55C229.732 31.75 230.1 30.13 230.835 28.69C231.57 27.235 232.635 26.0875 234.03 25.2475C235.44 24.4075 237.135 23.9875 239.115 23.9875C240.93 23.9875 242.505 24.37 243.84 25.135C245.19 25.885 246.232 26.95 246.967 28.33C247.717 29.71 248.092 31.36 248.092 33.28C248.092 33.4 248.085 33.6175 248.07 33.9325C248.055 34.2325 248.04 34.4425 248.025 34.5625H233.422ZM244.357 31.615C244.342 31 244.162 30.325 243.817 29.59C243.487 28.855 242.947 28.225 242.197 27.7C241.447 27.175 240.435 26.9125 239.16 26.9125C237.84 26.9125 236.775 27.1675 235.965 27.6775C235.17 28.1875 234.585 28.81 234.21 29.545C233.835 30.265 233.617 30.955 233.557 31.615H244.357Z" fill="#E7E7E7"/>
<path d="M127.69 38.9725L127.34 38.0357L127.337 38.037L127.69 38.9725ZM130.593 37.4875L131.483 37.033L130.911 35.9118L129.948 36.7226L130.593 37.4875ZM132.28 40.795L132.944 41.5424L133.522 41.029L133.171 40.3405L132.28 40.795ZM128.748 42.6175L128.404 41.6784L128.401 41.6794L128.748 42.6175ZM116.643 42.37L116.258 43.2933L116.258 43.2933L116.643 42.37ZM111.715 39.1075L111.008 39.8146L111.012 39.8184L111.715 39.1075ZM108.43 34.225L107.508 34.6117L107.51 34.618L108.43 34.225ZM108.43 22.1425L107.507 21.7584L107.507 21.7584L108.43 22.1425ZM111.693 17.2375L110.985 16.5304L110.985 16.5304L111.693 17.2375ZM116.62 13.9525L117.004 14.8758L117.008 14.8743L116.62 13.9525ZM128.748 13.6825L128.401 14.6206L128.404 14.6216L128.748 13.6825ZM132.28 15.505L133.171 15.9595L133.522 15.271L132.944 14.7576L132.28 15.505ZM130.593 18.8125L129.937 19.5675L130.902 20.4059L131.483 19.267L130.593 18.8125ZM127.69 17.3275L127.337 18.2631L127.349 18.2676L127.69 17.3275ZM118.285 17.4175L117.907 16.4918L117.907 16.4918L118.285 17.4175ZM114.64 19.8475L113.928 19.1455L113.928 19.1456L114.64 19.8475ZM112.255 23.515L111.328 23.1402L111.324 23.1487L112.255 23.515ZM112.255 32.785L111.323 33.1479L111.328 33.1598L112.255 32.785ZM114.64 36.475L113.923 37.1718L113.928 37.177L113.933 37.1821L114.64 36.475ZM118.285 38.8825L117.907 39.8082L117.907 39.8082L118.285 38.8825ZM122.898 40.7375C124.831 40.7375 126.554 40.4707 128.043 39.908L127.337 38.037C126.126 38.4943 124.654 38.7375 122.898 38.7375V40.7375ZM128.04 39.9093C129.43 39.3899 130.531 38.8469 131.237 38.2524L129.948 36.7226C129.514 37.0881 128.68 37.5351 127.34 38.0357L128.04 39.9093ZM129.702 37.942L131.389 41.2495L133.171 40.3405L131.483 37.033L129.702 37.942ZM131.616 40.0476C131.087 40.5171 130.058 41.0727 128.404 41.6784L129.091 43.5566C130.797 42.9323 132.123 42.2729 132.944 41.5424L131.616 40.0476ZM128.401 41.6794C126.876 42.2427 124.997 42.54 122.74 42.54V44.54C125.163 44.54 127.289 44.2223 129.094 43.5556L128.401 41.6794ZM122.74 42.54C120.671 42.54 118.771 42.1722 117.027 41.4467L116.258 43.2933C118.264 44.1278 120.429 44.54 122.74 44.54V42.54ZM117.027 41.4467C115.268 40.715 113.734 39.6987 112.418 38.3966L111.012 39.8184C112.516 41.3063 114.267 42.465 116.258 43.2933L117.027 41.4467ZM112.422 38.4004C111.12 37.0979 110.096 35.5777 109.35 33.832L107.51 34.618C108.354 36.5923 109.52 38.3271 111.008 39.8146L112.422 38.4004ZM109.352 33.8383C108.627 32.1092 108.26 30.2317 108.26 28.195H106.26C106.26 30.4783 106.673 32.6208 107.508 34.6117L109.352 33.8383ZM108.26 28.195C108.26 26.1583 108.627 24.2723 109.353 22.5266L107.507 21.7584C106.673 23.7627 106.26 25.9117 106.26 28.195H108.26ZM109.353 22.5266C110.085 20.7687 111.1 19.2444 112.4 17.9446L110.985 16.5304C109.495 18.0206 108.335 19.7663 107.507 21.7584L109.353 22.5266ZM112.4 17.9446C113.715 16.6288 115.248 15.6065 117.004 14.8758L116.236 13.0292C114.242 13.8585 112.49 15.0262 110.985 16.5304L112.4 17.9446ZM117.008 14.8743C118.767 14.1343 120.674 13.76 122.74 13.76V11.76C120.426 11.76 118.253 12.1806 116.232 13.0307L117.008 14.8743ZM122.74 13.76C124.997 13.76 126.876 14.0573 128.401 14.6206L129.094 12.7444C127.289 12.0777 125.163 11.76 122.74 11.76V13.76ZM128.404 14.6216C130.058 15.2273 131.087 15.7829 131.616 16.2524L132.944 14.7576C132.123 14.0271 130.797 13.3677 129.091 12.7434L128.404 14.6216ZM131.389 15.0505L129.702 18.358L131.483 19.267L133.171 15.9595L131.389 15.0505ZM131.248 18.0575C130.535 17.4381 129.425 16.8929 128.031 16.3874L127.349 18.2676C128.685 18.7521 129.51 19.1969 129.937 19.5675L131.248 18.0575ZM128.043 16.392C126.554 15.8293 124.831 15.5625 122.898 15.5625V17.5625C124.654 17.5625 126.126 17.8057 127.337 18.263L128.043 16.392ZM122.898 15.5625C121.103 15.5625 119.435 15.8674 117.907 16.4918L118.663 18.3432C119.925 17.8276 121.332 17.5625 122.898 17.5625V15.5625ZM117.907 16.4918C116.389 17.1118 115.06 17.9969 113.928 19.1455L115.352 20.5495C116.29 19.5981 117.391 18.8632 118.663 18.3432L117.907 16.4918ZM113.928 19.1456C112.811 20.2788 111.945 21.6139 111.328 23.1402L113.182 23.8898C113.705 22.5961 114.429 21.4862 115.352 20.5494L113.928 19.1456ZM111.324 23.1487C110.719 24.6864 110.423 26.3495 110.423 28.1275H112.423C112.423 26.5755 112.681 25.1636 113.186 23.8813L111.324 23.1487ZM110.423 28.1275C110.423 29.9194 110.719 31.5963 111.323 33.1479L113.187 32.4221C112.681 31.1237 112.423 29.6956 112.423 28.1275H110.423ZM111.328 33.1598C111.944 34.6849 112.809 36.0254 113.923 37.1718L115.357 35.7782C114.431 34.8246 113.706 33.7051 113.182 32.4102L111.328 33.1598ZM113.933 37.1821C115.065 38.3139 116.392 39.1894 117.907 39.8082L118.663 37.9568C117.388 37.4356 116.285 36.7061 115.347 35.7679L113.933 37.1821ZM117.907 39.8082C119.435 40.4326 121.103 40.7375 122.898 40.7375V38.7375C121.332 38.7375 119.925 38.4724 118.663 37.9568L117.907 39.8082ZM150.79 24.7525L150.382 25.6653L150.386 25.6673L150.79 24.7525ZM153.625 27.1825L152.791 27.7346L152.796 27.7411L152.8 27.7476L153.625 27.1825ZM154.75 43V44H155.75V43H154.75ZM150.79 43H149.79V44H150.79V43ZM149.53 28.2625L148.817 28.9632L148.823 28.9696L148.829 28.9759L149.53 28.2625ZM143.68 27.7675L144.195 28.6251L144.206 28.6181L143.68 27.7675ZM141.633 29.8375L140.779 29.3166L140.776 29.3208L141.633 29.8375ZM140.845 43V44H141.845V43H140.845ZM136.885 43H135.885V44H136.885V43ZM136.885 12.04V11.04H135.885V12.04H136.885ZM140.845 12.04H141.845V11.04H140.845V12.04ZM140.845 27.8125H139.845L141.812 28.0684L140.845 27.8125ZM141.925 26.1475L141.218 25.4403L141.209 25.4494L141.925 26.1475ZM144.22 24.6175L144.632 25.5289L144.632 25.5289L144.22 24.6175ZM147.258 24.9875C148.328 24.9875 149.367 25.2111 150.382 25.6653L151.198 23.8397C149.934 23.2739 148.617 22.9875 147.258 22.9875V24.9875ZM150.386 25.6673C151.356 26.0957 152.156 26.775 152.791 27.7346L154.459 26.6304C153.624 25.37 152.534 24.4293 151.194 23.8377L150.386 25.6673ZM152.8 27.7476C153.404 28.6289 153.75 29.8456 153.75 31.48H155.75C155.75 29.5744 155.347 27.9261 154.45 26.6174L152.8 27.7476ZM153.75 31.48V43H155.75V31.48H153.75ZM154.75 42H150.79V44H154.75V42ZM151.79 43V32.245H149.79V43H151.79ZM151.79 32.245C151.79 30.2919 151.346 28.644 150.231 27.5491L148.829 28.9759C149.395 29.531 149.79 30.5381 149.79 32.245H151.79ZM150.244 27.5618C149.203 26.5018 147.843 26.0025 146.268 26.0025V28.0025C147.392 28.0025 148.208 28.3432 148.817 28.9632L150.244 27.5618ZM146.268 26.0025C145.167 26.0025 144.125 26.3171 143.154 26.9169L144.206 28.6181C144.886 28.1979 145.568 28.0025 146.268 28.0025V26.0025ZM143.166 26.91C142.191 27.4945 141.396 28.3046 140.779 29.3166L142.486 30.3584C142.949 29.6004 143.519 29.0305 144.195 28.625L143.166 26.91ZM140.776 29.3208C140.149 30.361 139.845 31.5328 139.845 32.8075H141.845C141.845 31.8622 142.066 31.054 142.489 30.3542L140.776 29.3208ZM139.845 32.8075V43H141.845V32.8075H139.845ZM140.845 42H136.885V44H140.845V42ZM137.885 43V12.04H135.885V43H137.885ZM136.885 13.04H140.845V11.04H136.885V13.04ZM139.845 12.04V27.8125H141.845V12.04H139.845ZM141.812 28.0684C141.884 27.7954 142.112 27.3878 142.641 26.8456L141.209 25.4494C140.568 26.1072 140.076 26.8096 139.878 27.5566L141.812 28.0684ZM142.632 26.8546C143.132 26.3553 143.79 25.909 144.632 25.5289L143.809 23.7061C142.79 24.166 141.919 24.7397 141.218 25.4404L142.632 26.8546ZM144.632 25.5289C145.423 25.1715 146.294 24.9875 147.258 24.9875V22.9875C146.031 22.9875 144.877 23.2235 143.809 23.7061L144.632 25.5289ZM174.892 43H173.892V44H174.892V43ZM174.892 39.4H175.892L173.94 39.0952L174.892 39.4ZM173.835 40.9525L173.086 40.2891L173.078 40.2989L173.835 40.9525ZM171.472 42.7525L171.941 43.636L171.946 43.6334L171.472 42.7525ZM163.305 42.325L162.798 43.1874L162.803 43.1898L163.305 42.325ZM159.997 38.9275L159.121 39.4101L159.127 39.4207L159.997 38.9275ZM159.997 28.645L159.125 28.1556L159.123 28.1586L159.997 28.645ZM163.305 25.225L163.811 26.0874L163.814 26.0857L163.305 25.225ZM171.427 24.7075L170.985 25.6047L170.991 25.6073L171.427 24.7075ZM173.79 26.3725L173.057 27.053L173.066 27.0622L173.79 26.3725ZM174.847 27.9925L173.873 28.2197L175.847 27.9925H174.847ZM174.847 24.5275V23.5275H173.847V24.5275H174.847ZM178.717 24.5275H179.717V23.5275H178.717V24.5275ZM178.717 43V44H179.717V43H178.717ZM165.802 39.5125L165.3 40.3773L165.308 40.3821L165.317 40.3867L165.802 39.5125ZM174.015 37.2175L174.895 37.6916L174.898 37.686L174.015 37.2175ZM174.015 30.355L173.131 30.8235L173.134 30.8291L174.015 30.355ZM171.877 28.06L171.352 28.9112L171.363 28.9175L171.877 28.06ZM165.802 28.0375L165.306 27.1692L165.3 27.1727L165.802 28.0375ZM175.892 43V39.4H173.892V43H175.892ZM173.94 39.0952C173.889 39.2534 173.666 39.6356 173.086 40.2892L174.583 41.6158C175.174 40.9494 175.655 40.2966 175.845 39.7048L173.94 39.0952ZM173.078 40.2989C172.608 40.8428 171.928 41.3725 170.999 41.8716L171.946 43.6334C173.027 43.0525 173.921 42.3822 174.592 41.6061L173.078 40.2989ZM171.004 41.869C170.185 42.3033 169.182 42.54 167.962 42.54V44.54C169.442 44.54 170.78 44.2517 171.941 43.636L171.004 41.869ZM167.962 42.54C166.418 42.54 165.04 42.1763 163.807 41.4602L162.803 43.1898C164.359 44.0937 166.087 44.54 167.962 44.54V42.54ZM163.811 41.4626C162.589 40.7457 161.609 39.7436 160.867 38.4343L159.127 39.4207C160.035 41.0214 161.26 42.2843 162.798 43.1874L163.811 41.4626ZM160.873 38.4449C160.157 37.1461 159.782 35.6002 159.782 33.775H157.782C157.782 35.8798 158.217 37.7689 159.121 39.4101L160.873 38.4449ZM159.782 33.775C159.782 31.9495 160.157 30.4129 160.871 29.1314L159.123 28.1586C158.217 29.7871 157.782 31.6705 157.782 33.775H159.782ZM160.869 29.1344C161.612 27.8104 162.592 26.8028 163.811 26.0874L162.798 24.3626C161.257 25.2672 160.032 26.5396 159.125 28.1556L160.869 29.1344ZM163.814 26.0857C165.046 25.357 166.421 24.9875 167.962 24.9875V22.9875C166.083 22.9875 164.353 23.443 162.796 24.3643L163.814 26.0857ZM167.962 24.9875C169.178 24.9875 170.176 25.206 170.986 25.6047L171.869 23.8103C170.729 23.249 169.416 22.9875 167.962 22.9875V24.9875ZM170.991 25.6073C171.899 26.0477 172.576 26.5353 173.057 27.053L174.522 25.692C173.833 24.9497 172.935 24.3273 171.863 23.8077L170.991 25.6073ZM173.066 27.0622C173.634 27.6589 173.831 28.0381 173.873 28.2197L175.821 27.7653C175.653 27.0469 175.145 26.3461 174.514 25.6828L173.066 27.0622ZM175.847 27.9925V24.5275H173.847V27.9925H175.847ZM174.847 25.5275H178.717V23.5275H174.847V25.5275ZM177.717 24.5275V43H179.717V24.5275H177.717ZM178.717 42H174.892V44H178.717V42ZM161.652 33.775C161.652 35.2593 161.979 36.5988 162.672 37.7545L164.387 36.7255C163.911 35.9312 163.652 34.9607 163.652 33.775H161.652ZM162.672 37.7545C163.339 38.8658 164.215 39.7475 165.3 40.3773L166.304 38.6477C165.529 38.1975 164.89 37.5642 164.387 36.7255L162.672 37.7545ZM165.317 40.3867C166.408 40.9929 167.58 41.3 168.817 41.3V39.3C167.925 39.3 167.087 39.0821 166.288 38.6383L165.317 40.3867ZM168.817 41.3C170.122 41.3 171.323 40.9887 172.392 40.3475L171.363 38.6325C170.631 39.0713 169.792 39.3 168.817 39.3V41.3ZM172.392 40.3475C173.455 39.7098 174.29 38.8159 174.895 37.6916L173.134 36.7434C172.69 37.5691 172.1 38.1902 171.363 38.6325L172.392 40.3475ZM174.898 37.686C175.511 36.5296 175.802 35.2164 175.802 33.775H173.802C173.802 34.9436 173.568 35.9254 173.131 36.749L174.898 37.686ZM175.802 33.775C175.802 32.3341 175.512 31.0256 174.895 29.8809L173.134 30.8291C173.568 31.6344 173.802 32.6059 173.802 33.775H175.802ZM174.898 29.8865C174.294 28.747 173.458 27.8425 172.392 27.2025L171.363 28.9175C172.096 29.3575 172.686 29.983 173.131 30.8235L174.898 29.8865ZM172.402 27.2088C171.332 26.5489 170.128 26.2275 168.817 26.2275V28.2275C169.787 28.2275 170.622 28.4611 171.352 28.9112L172.402 27.2088ZM168.817 26.2275C167.574 26.2275 166.399 26.5449 165.306 27.1693L166.298 28.9057C167.096 28.4501 167.93 28.2275 168.817 28.2275V26.2275ZM165.3 27.1727C164.215 27.8025 163.339 28.6842 162.672 29.7955L164.387 30.8245C164.89 29.9858 165.529 29.3525 166.304 28.9023L165.3 27.1727ZM162.672 29.7955C161.979 30.9512 161.652 32.2907 161.652 33.775H163.652C163.652 32.5893 163.911 31.6188 164.387 30.8245L162.672 29.7955ZM197.808 24.7525L197.4 25.6653L197.405 25.6673L197.808 24.7525ZM200.643 27.1825L199.81 27.7346L199.814 27.7411L199.818 27.7476L200.643 27.1825ZM201.768 43V44H202.768V43H201.768ZM197.808 43H196.808V44H197.808V43ZM196.526 28.2625L195.825 28.9759L195.832 28.9821L196.526 28.2625ZM190.653 27.7675L191.175 28.6208L191.179 28.6181L190.653 27.7675ZM188.651 29.8375L189.507 30.3542L189.511 30.3477L188.651 29.8375ZM187.863 43V44H188.863V43H187.863ZM183.948 43H182.948V44H183.948V43ZM183.948 24.5275V23.5275H182.948V24.5275H183.948ZM187.863 24.5275H188.863V23.5275H187.863V24.5275ZM187.863 27.8125H186.863L188.83 28.0684L187.863 27.8125ZM188.966 26.1475L189.673 26.8546L189.673 26.8546L188.966 26.1475ZM191.261 24.6175L190.849 23.7061L190.849 23.7061L191.261 24.6175ZM194.276 24.9875C195.346 24.9875 196.385 25.2111 197.4 25.6653L198.217 23.8397C196.952 23.2739 195.636 22.9875 194.276 22.9875V24.9875ZM197.405 25.6673C198.375 26.0957 199.174 26.775 199.81 27.7346L201.477 26.6304C200.643 25.37 199.552 24.4293 198.212 23.8377L197.405 25.6673ZM199.818 27.7476C200.422 28.6289 200.768 29.8456 200.768 31.48H202.768C202.768 29.5744 202.365 27.9261 201.468 26.6174L199.818 27.7476ZM200.768 31.48V43H202.768V31.48H200.768ZM201.768 42H197.808V44H201.768V42ZM198.808 43V32.245H196.808V43H198.808ZM198.808 32.245C198.808 30.2877 198.354 28.6372 197.22 27.5429L195.832 28.9821C196.407 29.5378 196.808 30.5423 196.808 32.245H198.808ZM197.227 27.5492C196.161 26.5016 194.795 26.0025 193.218 26.0025V28.0025C194.342 28.0025 195.181 28.3434 195.825 28.9758L197.227 27.5492ZM193.218 26.0025C192.13 26.0025 191.095 26.3189 190.128 26.9169L191.179 28.6181C191.862 28.1961 192.537 28.0025 193.218 28.0025V26.0025ZM190.132 26.9142C189.171 27.5013 188.392 28.3141 187.791 29.3273L189.511 30.3477C189.96 29.5909 190.516 29.0237 191.175 28.6208L190.132 26.9142ZM187.795 29.3208C187.167 30.361 186.863 31.5328 186.863 32.8075H188.863C188.863 31.8622 189.085 31.054 189.507 30.3542L187.795 29.3208ZM186.863 32.8075V43H188.863V32.8075H186.863ZM187.863 42H183.948V44H187.863V42ZM184.948 43V24.5275H182.948V43H184.948ZM183.948 25.5275H187.863V23.5275H183.948V25.5275ZM186.863 24.5275V27.8125H188.863V24.5275H186.863ZM188.83 28.0684C188.9 27.8031 189.129 27.3982 189.673 26.8546L188.259 25.4404C187.602 26.0968 187.097 26.8019 186.897 27.5566L188.83 28.0684ZM189.673 26.8546C190.172 26.3553 190.831 25.909 191.673 25.5289L190.849 23.7061C189.831 24.166 188.96 24.7397 188.259 25.4404L189.673 26.8546ZM191.673 25.5289C192.466 25.1707 193.329 24.9875 194.276 24.9875V22.9875C193.062 22.9875 191.916 23.2243 190.849 23.7061L191.673 25.5289ZM211.748 52.4275L211.5 53.3962L211.502 53.3969L211.748 52.4275ZM208.665 51.145L209.197 50.2978L209.193 50.2954L208.665 51.145ZM206.573 49.2325L205.882 48.5097L205.255 49.1086L205.759 49.8137L206.573 49.2325ZM209.138 46.78L209.945 46.19L209.272 45.2684L208.447 46.0572L209.138 46.78ZM210.285 48.0175L210.958 47.2776L210.957 47.2765L210.285 48.0175ZM212.288 49.165L212.639 48.2287L212.639 48.2287L212.288 49.165ZM218.925 48.7825L218.407 47.9274L218.397 47.9337L218.925 48.7825ZM221.018 46.51L220.123 46.0628L220.123 46.0628L221.018 46.51ZM221.738 42.6625V41.6625H220.738V42.6625H221.738ZM225.563 42.6625H226.563V41.6625H225.563V42.6625ZM224.235 48.6475L223.394 48.1076L223.387 48.1183L224.235 48.6475ZM220.703 51.7975L220.274 50.8941L220.267 50.8977L220.703 51.7975ZM221.738 43H220.738V44H221.738V43ZM221.738 39.4H222.738L220.785 39.0952L221.738 39.4ZM220.68 40.9525L219.932 40.2891L219.924 40.2989L220.68 40.9525ZM218.318 42.7525L218.786 43.636L218.791 43.6334L218.318 42.7525ZM210.15 42.325L209.644 43.1874L209.648 43.1898L210.15 42.325ZM206.843 38.9275L205.967 39.4101L205.973 39.4207L206.843 38.9275ZM206.843 28.645L205.971 28.1556L205.969 28.1586L206.843 28.645ZM210.15 25.225L210.657 26.0874L210.659 26.0857L210.15 25.225ZM218.273 24.7075L217.831 25.6047L217.837 25.6073L218.273 24.7075ZM220.635 26.3725L219.903 27.053L219.911 27.0622L220.635 26.3725ZM221.693 27.9925L220.719 28.2197L222.693 27.9925H221.693ZM221.693 24.5275V23.5275H220.693V24.5275H221.693ZM225.563 24.5275H226.563V23.5275H225.563V24.5275ZM225.563 43V44H226.563V43H225.563ZM212.648 39.5125L212.146 40.3773L212.154 40.3821L212.162 40.3867L212.648 39.5125ZM220.86 37.2175L221.741 37.6916L221.744 37.686L220.86 37.2175ZM220.86 30.355L219.977 30.8235L219.98 30.8291L220.86 30.355ZM218.723 28.06L218.198 28.9112L218.208 28.9175L218.723 28.06ZM212.648 28.0375L212.152 27.1692L212.146 27.1727L212.648 28.0375ZM215.708 51.8775C214.32 51.8775 213.085 51.7344 211.993 51.4581L211.502 53.3969C212.781 53.7206 214.185 53.8775 215.708 53.8775V51.8775ZM211.996 51.4588C210.911 51.1806 209.982 50.7902 209.197 50.2978L208.134 51.9922C209.119 52.6098 210.245 53.0744 211.5 53.3962L211.996 51.4588ZM209.193 50.2954C208.42 49.8158 207.825 49.2653 207.387 48.6513L205.759 49.8137C206.371 50.6697 207.171 51.3942 208.138 51.9946L209.193 50.2954ZM207.264 49.9553L209.829 47.5028L208.447 46.0572L205.882 48.5097L207.264 49.9553ZM208.33 47.37C208.666 47.8297 209.099 48.2923 209.614 48.7585L210.957 47.2765C210.511 46.8727 210.179 46.5103 209.945 46.19L208.33 47.37ZM209.613 48.7574C210.228 49.3163 211.016 49.7561 211.937 50.1013L212.639 48.2287C211.88 47.9439 211.333 47.6187 210.958 47.2776L209.613 48.7574ZM211.937 50.1013C212.931 50.4741 214.157 50.6375 215.573 50.6375V48.6375C214.288 48.6375 213.325 48.4859 212.639 48.2287L211.937 50.1013ZM215.573 50.6375C217.038 50.6375 218.348 50.3202 219.454 49.6313L218.397 47.9337C217.673 48.3848 216.748 48.6375 215.573 48.6375V50.6375ZM219.444 49.6375C220.521 48.9844 221.348 48.0853 221.912 46.9572L220.123 46.0628C219.728 46.8547 219.16 47.4706 218.407 47.9275L219.444 49.6375ZM221.912 46.9572C222.47 45.8427 222.738 44.6067 222.738 43.27H220.738C220.738 44.3333 220.526 45.2573 220.123 46.0628L221.912 46.9572ZM222.738 43.27V42.6625H220.738V43.27H222.738ZM221.738 43.6625H225.563V41.6625H221.738V43.6625ZM224.563 42.6625V43.5175H226.563V42.6625H224.563ZM224.563 43.5175C224.563 45.4129 224.153 46.924 223.394 48.1077L225.077 49.1873C226.088 47.611 226.563 45.7021 226.563 43.5175H224.563ZM223.387 48.1183C222.618 49.351 221.586 50.2712 220.274 50.8941L221.132 52.7009C222.79 51.9138 224.113 50.734 225.084 49.1767L223.387 48.1183ZM220.267 50.8977C218.933 51.5443 217.42 51.8775 215.708 51.8775V53.8775C217.686 53.8775 219.503 53.4907 221.139 52.6973L220.267 50.8977ZM222.738 43V39.4H220.738V43H222.738ZM220.785 39.0952C220.735 39.2534 220.511 39.6356 219.932 40.2892L221.429 41.6158C222.019 40.9494 222.501 40.2966 222.69 39.7048L220.785 39.0952ZM219.924 40.2989C219.454 40.8428 218.773 41.3725 217.845 41.8716L218.791 43.6334C219.872 43.0525 220.767 42.3822 221.437 41.6061L219.924 40.2989ZM217.849 41.869C217.03 42.3033 216.028 42.54 214.808 42.54V44.54C216.288 44.54 217.625 44.2517 218.786 43.636L217.849 41.869ZM214.808 42.54C213.263 42.54 211.886 42.1763 210.653 41.4602L209.648 43.1898C211.205 44.0937 212.933 44.54 214.808 44.54V42.54ZM210.657 41.4626C209.435 40.7457 208.455 39.7436 207.713 38.4343L205.973 39.4207C206.881 41.0214 208.106 42.2843 209.644 43.1874L210.657 41.4626ZM207.719 38.4449C207.003 37.1461 206.628 35.6002 206.628 33.775H204.628C204.628 35.8798 205.063 37.7689 205.967 39.4101L207.719 38.4449ZM206.628 33.775C206.628 31.9495 207.003 30.4129 207.717 29.1314L205.969 28.1586C205.063 29.7871 204.628 31.6705 204.628 33.775H206.628ZM207.715 29.1344C208.458 27.8104 209.438 26.8028 210.657 26.0874L209.644 24.3626C208.103 25.2672 206.878 26.5396 205.971 28.1556L207.715 29.1344ZM210.659 26.0857C211.892 25.357 213.267 24.9875 214.808 24.9875V22.9875C212.929 22.9875 211.199 23.443 209.641 24.3643L210.659 26.0857ZM214.808 24.9875C216.024 24.9875 217.021 25.206 217.831 25.6047L218.715 23.8103C217.574 23.249 216.262 22.9875 214.808 22.9875V24.9875ZM217.837 25.6073C218.745 26.0477 219.422 26.5353 219.903 27.053L221.368 25.692C220.679 24.9497 219.781 24.3273 218.709 23.8077L217.837 25.6073ZM219.911 27.0622C220.48 27.6589 220.677 28.0381 220.719 28.2197L222.667 27.7653C222.499 27.0469 221.991 26.3461 221.36 25.6828L219.911 27.0622ZM222.693 27.9925V24.5275H220.693V27.9925H222.693ZM221.693 25.5275H225.563V23.5275H221.693V25.5275ZM224.563 24.5275V43H226.563V24.5275H224.563ZM225.563 42H221.738V44H225.563V42ZM208.498 33.775C208.498 35.2593 208.824 36.5988 209.518 37.7545L211.233 36.7255C210.756 35.9312 210.498 34.9607 210.498 33.775H208.498ZM209.518 37.7545C210.185 38.8658 211.061 39.7475 212.146 40.3773L213.15 38.6477C212.375 38.1975 211.736 37.5642 211.233 36.7255L209.518 37.7545ZM212.162 40.3867C213.253 40.9929 214.425 41.3 215.663 41.3V39.3C214.77 39.3 213.932 39.0821 213.134 38.6383L212.162 40.3867ZM215.663 41.3C216.968 41.3 218.169 40.9887 219.237 40.3475L218.208 38.6325C217.477 39.0713 216.638 39.3 215.663 39.3V41.3ZM219.237 40.3475C220.3 39.7098 221.135 38.8159 221.741 37.6916L219.98 36.7434C219.535 37.5691 218.946 38.1902 218.208 38.6325L219.237 40.3475ZM221.744 37.686C222.357 36.5296 222.648 35.2164 222.648 33.775H220.648C220.648 34.9436 220.414 35.9254 219.977 36.749L221.744 37.686ZM222.648 33.775C222.648 32.3341 222.357 31.0256 221.741 29.8809L219.98 30.8291C220.414 31.6344 220.648 32.6059 220.648 33.775H222.648ZM221.744 29.8865C221.14 28.747 220.304 27.8425 219.237 27.2025L218.208 28.9175C218.942 29.3575 219.531 29.983 219.977 30.8235L221.744 29.8865ZM219.248 27.2088C218.178 26.5489 216.973 26.2275 215.663 26.2275V28.2275C216.633 28.2275 217.468 28.4611 218.198 28.9112L219.248 27.2088ZM215.663 26.2275C214.42 26.2275 213.244 26.5449 212.152 27.1693L213.144 28.9057C213.941 28.4501 214.776 28.2275 215.663 28.2275V26.2275ZM212.146 27.1727C211.061 27.8025 210.185 28.6842 209.518 29.7955L211.233 30.8245C211.736 29.9858 212.375 29.3525 213.15 28.9023L212.146 27.1727ZM209.518 29.7955C208.824 30.9512 208.498 32.2907 208.498 33.775H210.498C210.498 32.5893 210.756 31.6188 211.233 30.8245L209.518 29.7955ZM233.422 34.5625V33.5625H232.409L232.423 34.576L233.422 34.5625ZM234.142 37.6L233.251 38.053L233.251 38.053L234.142 37.6ZM236.212 39.7825L235.704 40.6437L235.71 40.6473L236.212 39.7825ZM242.535 40.0975L242.918 41.0211L242.927 41.0175L242.535 40.0975ZM244.515 38.8825L245.189 39.6215L245.195 39.6161L245.2 39.6107L244.515 38.8825ZM245.617 37.6L246.395 36.9708L245.495 35.8598L244.76 37.0855L245.617 37.6ZM247.53 39.9625L248.354 40.529L248.777 39.9137L248.307 39.3333L247.53 39.9625ZM245.707 41.8525L245.107 41.0525L245.099 41.0586L245.707 41.8525ZM243.12 43.09L242.851 42.1268L242.838 42.1306L243.12 43.09ZM234.232 42.28L233.722 43.1399L233.732 43.146L234.232 42.28ZM230.902 38.7475L230.013 39.2052L230.015 39.2089L230.902 38.7475ZM230.835 28.69L231.726 29.1446L231.728 29.1409L230.835 28.69ZM234.03 25.2475L233.518 24.3884L233.514 24.3908L234.03 25.2475ZM243.84 25.135L243.343 26.0027L243.354 26.0092L243.84 25.135ZM246.967 28.33L246.085 28.8001L246.089 28.8075L246.967 28.33ZM248.07 33.9325L249.069 33.9824L249.069 33.9801L248.07 33.9325ZM248.025 34.5625V35.5625H248.908L249.017 34.6865L248.025 34.5625ZM244.357 31.615V32.615H245.382L245.357 31.5906L244.357 31.615ZM243.817 29.59L242.905 29.9996L242.909 30.0073L242.912 30.0149L243.817 29.59ZM242.197 27.7L241.624 28.5192L241.624 28.5192L242.197 27.7ZM235.965 27.6775L235.432 26.8312L235.425 26.8358L235.965 27.6775ZM234.21 29.545L235.097 30.0069L235.101 29.9995L234.21 29.545ZM233.557 31.615L232.562 31.5245L232.462 32.615H233.557V31.615ZM232.423 34.576C232.439 35.8262 232.711 36.9909 233.251 38.053L235.034 37.147C234.644 36.3791 234.435 35.5188 234.422 34.549L232.423 34.576ZM233.251 38.053C233.805 39.144 234.631 40.0105 235.704 40.6437L236.721 38.9213C235.964 38.4745 235.409 37.886 235.034 37.1469L233.251 38.053ZM235.71 40.6473C236.827 41.2958 238.151 41.5925 239.632 41.5925V39.5925C238.414 39.5925 237.458 39.3492 236.715 38.9177L235.71 40.6473ZM239.632 41.5925C240.864 41.5925 241.969 41.415 242.918 41.0211L242.152 39.1739C241.511 39.44 240.681 39.5925 239.632 39.5925V41.5925ZM242.927 41.0175C243.813 40.64 244.576 40.1799 245.189 39.6215L243.841 38.1435C243.434 38.5151 242.877 38.865 242.143 39.1775L242.927 41.0175ZM245.2 39.6107C245.742 39.1007 246.183 38.601 246.475 38.1145L244.76 37.0855C244.602 37.349 244.308 37.7043 243.83 38.1543L245.2 39.6107ZM244.84 38.2292L246.753 40.5917L248.307 39.3333L246.395 36.9708L244.84 38.2292ZM246.706 39.396C246.274 40.0238 245.743 40.5757 245.107 41.0525L246.307 42.6525C247.112 42.0493 247.796 41.3412 248.354 40.529L246.706 39.396ZM245.099 41.0586C244.513 41.5078 243.771 41.8697 242.851 42.1269L243.389 44.0531C244.509 43.7403 245.492 43.2772 246.315 42.6464L245.099 41.0586ZM242.838 42.1306C241.937 42.3956 240.793 42.54 239.385 42.54V44.54C240.917 44.54 242.263 44.3844 243.402 44.0494L242.838 42.1306ZM239.385 42.54C237.549 42.54 236.01 42.1517 234.732 41.414L233.732 43.146C235.365 44.0883 237.261 44.54 239.385 44.54V42.54ZM234.743 41.4201C233.465 40.6612 232.485 39.6225 231.79 38.2861L230.015 39.2089C230.88 40.8725 232.12 42.1888 233.722 43.1399L234.743 41.4201ZM231.792 38.2898C231.094 36.9356 230.732 35.3639 230.732 33.55H228.732C228.732 35.6361 229.151 37.5294 230.013 39.2052L231.792 38.2898ZM230.732 33.55C230.732 31.8899 231.07 30.4285 231.726 29.1446L229.944 28.2354C229.13 29.8315 228.732 31.6101 228.732 33.55H230.732ZM231.728 29.1409C232.378 27.8537 233.312 26.847 234.546 26.1042L233.514 24.3908C231.958 25.328 230.762 26.6163 229.942 28.2391L231.728 29.1409ZM234.542 26.1066C235.768 25.3762 237.278 24.9875 239.115 24.9875V22.9875C236.992 22.9875 235.112 23.4388 233.518 24.3884L234.542 26.1066ZM239.115 24.9875C240.787 24.9875 242.184 25.3388 243.343 26.0026L244.337 24.2674C242.826 23.4012 241.073 22.9875 239.115 22.9875V24.9875ZM243.354 26.0092C244.534 26.6643 245.439 27.588 246.085 28.8001L247.85 27.8599C247.026 26.312 245.846 25.1057 244.326 24.2608L243.354 26.0092ZM246.089 28.8075C246.743 30.0118 247.092 31.4901 247.092 33.28H249.092C249.092 31.2299 248.692 29.4082 247.846 27.8525L246.089 28.8075ZM247.092 33.28C247.092 33.3731 247.086 33.5684 247.071 33.8849L249.069 33.9801C249.084 33.6666 249.092 33.4269 249.092 33.28H247.092ZM247.071 33.8826C247.056 34.1834 247.043 34.3596 247.033 34.4385L249.017 34.6865C249.037 34.5254 249.054 34.2816 249.069 33.9824L247.071 33.8826ZM248.025 33.5625H233.422V35.5625H248.025V33.5625ZM245.357 31.5906C245.338 30.8003 245.109 29.9874 244.723 29.1651L242.912 30.0149C243.216 30.6626 243.347 31.1997 243.358 31.6394L245.357 31.5906ZM244.73 29.1804C244.316 28.2593 243.648 27.4949 242.771 26.8808L241.624 28.5192C242.247 28.9551 242.659 29.4507 242.905 29.9996L244.73 29.1804ZM242.771 26.8808C241.798 26.2001 240.562 25.9125 239.16 25.9125V27.9125C240.308 27.9125 241.096 28.1499 241.624 28.5192L242.771 26.8808ZM239.16 25.9125C237.72 25.9125 236.451 26.1895 235.432 26.8313L236.498 28.5237C237.099 28.1455 237.96 27.9125 239.16 27.9125V25.9125ZM235.425 26.8358C234.503 27.4274 233.786 28.1759 233.319 29.0905L235.101 29.9995C235.384 29.4441 235.837 28.9476 236.505 28.5192L235.425 26.8358ZM233.323 29.0831C232.901 29.8933 232.636 30.7091 232.562 31.5245L234.553 31.7055C234.599 31.2009 234.769 30.6367 235.097 30.0069L233.323 29.0831ZM233.557 32.615H244.357V30.615H233.557V32.615Z" fill="#485696" mask="url(#path-2-outside-1_7_9)"/>
</svg>
