<svg width="353" height="59" viewBox="0 0 353 59" fill="none" xmlns="http://www.w3.org/2000/svg">
<rect width="353" height="59" rx="15" fill="#485696"/>
<path d="M122.475 13.9545H137.955V17.442H126.3V27.027H137.168V30.492H126.3V43.6545H122.475V13.9545ZM150.248 44.1945C148.343 44.1945 146.648 43.767 145.163 42.912C143.693 42.057 142.538 40.902 141.698 39.447C140.858 37.977 140.438 36.3195 140.438 34.4745C140.438 32.6295 140.858 30.9645 141.698 29.4795C142.538 27.9945 143.693 26.817 145.163 25.947C146.648 25.077 148.343 24.642 150.248 24.642C152.138 24.642 153.811 25.077 155.266 25.947C156.736 26.817 157.883 27.9945 158.708 29.4795C159.533 30.9645 159.946 32.6295 159.946 34.4745C159.946 36.3195 159.533 37.977 158.708 39.447C157.883 40.902 156.736 42.057 155.266 42.912C153.811 43.767 152.138 44.1945 150.248 44.1945ZM150.248 40.842C151.448 40.842 152.491 40.5645 153.376 40.0095C154.276 39.4545 154.973 38.697 155.468 37.737C155.963 36.762 156.211 35.667 156.211 34.452C156.211 33.237 155.963 32.142 155.468 31.167C154.973 30.192 154.276 29.4195 153.376 28.8495C152.491 28.2795 151.448 27.9945 150.248 27.9945C149.033 27.9945 147.976 28.2795 147.076 28.8495C146.176 29.4195 145.471 30.192 144.961 31.167C144.466 32.142 144.218 33.237 144.218 34.452C144.218 35.667 144.466 36.762 144.961 37.737C145.471 38.697 146.176 39.4545 147.076 40.0095C147.976 40.5645 149.033 40.842 150.248 40.842ZM168.359 43.6545H164.421V12.6945H168.359V43.6545ZM178.071 43.6545H174.133V12.6945H178.071V43.6545ZM192.26 44.1945C190.355 44.1945 188.66 43.767 187.175 42.912C185.705 42.057 184.55 40.902 183.71 39.447C182.87 37.977 182.45 36.3195 182.45 34.4745C182.45 32.6295 182.87 30.9645 183.71 29.4795C184.55 27.9945 185.705 26.817 187.175 25.947C188.66 25.077 190.355 24.642 192.26 24.642C194.15 24.642 195.823 25.077 197.278 25.947C198.748 26.817 199.895 27.9945 200.72 29.4795C201.545 30.9645 201.958 32.6295 201.958 34.4745C201.958 36.3195 201.545 37.977 200.72 39.447C199.895 40.902 198.748 42.057 197.278 42.912C195.823 43.767 194.15 44.1945 192.26 44.1945ZM192.26 40.842C193.46 40.842 194.503 40.5645 195.388 40.0095C196.288 39.4545 196.985 38.697 197.48 37.737C197.975 36.762 198.223 35.667 198.223 34.452C198.223 33.237 197.975 32.142 197.48 31.167C196.985 30.192 196.288 29.4195 195.388 28.8495C194.503 28.2795 193.46 27.9945 192.26 27.9945C191.045 27.9945 189.988 28.2795 189.088 28.8495C188.188 29.4195 187.483 30.192 186.973 31.167C186.478 32.142 186.23 33.237 186.23 34.452C186.23 35.667 186.478 36.762 186.973 37.737C187.483 38.697 188.188 39.4545 189.088 40.0095C189.988 40.5645 191.045 40.842 192.26 40.842ZM218.471 29.817L213.768 43.6545H209.718L204.701 25.182H208.863L212.216 39.3795L216.851 25.542H220.091L224.681 39.3795L228.056 25.182H232.241L227.223 43.6545H223.173L218.471 29.817Z" fill="#E7E7E7"/>
</svg>
