<svg width="341" height="59" viewBox="0 0 341 59" fill="none" xmlns="http://www.w3.org/2000/svg">
<rect x="2" y="2" width="337" height="55" rx="13" stroke="#485696" stroke-width="4"/>
<path d="M117.475 14.3H132.955V17.7875H121.3V27.3725H132.168V30.8375H121.3V44H117.475V14.3ZM145.248 44.54C143.343 44.54 141.648 44.1125 140.163 43.2575C138.693 42.4025 137.538 41.2475 136.698 39.7925C135.858 38.3225 135.438 36.665 135.438 34.82C135.438 32.975 135.858 31.31 136.698 29.825C137.538 28.34 138.693 27.1625 140.163 26.2925C141.648 25.4225 143.343 24.9875 145.248 24.9875C147.138 24.9875 148.811 25.4225 150.266 26.2925C151.736 27.1625 152.883 28.34 153.708 29.825C154.533 31.31 154.946 32.975 154.946 34.82C154.946 36.665 154.533 38.3225 153.708 39.7925C152.883 41.2475 151.736 42.4025 150.266 43.2575C148.811 44.1125 147.138 44.54 145.248 44.54ZM145.248 41.1875C146.448 41.1875 147.491 40.91 148.376 40.355C149.276 39.8 149.973 39.0425 150.468 38.0825C150.963 37.1075 151.211 36.0125 151.211 34.7975C151.211 33.5825 150.963 32.4875 150.468 31.5125C149.973 30.5375 149.276 29.765 148.376 29.195C147.491 28.625 146.448 28.34 145.248 28.34C144.033 28.34 142.976 28.625 142.076 29.195C141.176 29.765 140.471 30.5375 139.961 31.5125C139.466 32.4875 139.218 33.5825 139.218 34.7975C139.218 36.0125 139.466 37.1075 139.961 38.0825C140.471 39.0425 141.176 39.8 142.076 40.355C142.976 40.91 144.033 41.1875 145.248 41.1875ZM163.359 44H159.421V13.04H163.359V44ZM173.071 44H169.133V13.04H173.071V44ZM187.26 44.54C185.355 44.54 183.66 44.1125 182.175 43.2575C180.705 42.4025 179.55 41.2475 178.71 39.7925C177.87 38.3225 177.45 36.665 177.45 34.82C177.45 32.975 177.87 31.31 178.71 29.825C179.55 28.34 180.705 27.1625 182.175 26.2925C183.66 25.4225 185.355 24.9875 187.26 24.9875C189.15 24.9875 190.823 25.4225 192.278 26.2925C193.748 27.1625 194.895 28.34 195.72 29.825C196.545 31.31 196.958 32.975 196.958 34.82C196.958 36.665 196.545 38.3225 195.72 39.7925C194.895 41.2475 193.748 42.4025 192.278 43.2575C190.823 44.1125 189.15 44.54 187.26 44.54ZM187.26 41.1875C188.46 41.1875 189.503 40.91 190.388 40.355C191.288 39.8 191.985 39.0425 192.48 38.0825C192.975 37.1075 193.223 36.0125 193.223 34.7975C193.223 33.5825 192.975 32.4875 192.48 31.5125C191.985 30.5375 191.288 29.765 190.388 29.195C189.503 28.625 188.46 28.34 187.26 28.34C186.045 28.34 184.988 28.625 184.088 29.195C183.188 29.765 182.483 30.5375 181.973 31.5125C181.478 32.4875 181.23 33.5825 181.23 34.7975C181.23 36.0125 181.478 37.1075 181.973 38.0825C182.483 39.0425 183.188 39.8 184.088 40.355C184.988 40.91 186.045 41.1875 187.26 41.1875ZM213.471 30.1625L208.768 44H204.718L199.701 25.5275H203.863L207.216 39.725L211.851 25.8875H215.091L219.681 39.725L223.056 25.5275H227.241L222.223 44H218.173L213.471 30.1625Z" fill="#485696"/>
</svg>
