<svg width="341" height="59" viewBox="0 0 341 59" fill="none" xmlns="http://www.w3.org/2000/svg">
<rect x="2" y="2" width="337" height="55" rx="13" stroke="#485696" stroke-width="4"/>
<path d="M134.7 13.3H143.115C144.975 13.3 146.648 13.6075 148.133 14.2225C149.633 14.8225 150.825 15.7675 151.71 17.0575C152.595 18.3475 153.038 20.0275 153.038 22.0975C153.038 24.1525 152.595 25.855 151.71 27.205C150.825 28.555 149.633 29.5675 148.133 30.2425C146.648 30.9025 144.975 31.2325 143.115 31.2325H138.548V43H134.7V13.3ZM138.548 28.015H142.058C143.333 28.015 144.488 27.8275 145.523 27.4525C146.573 27.0775 147.405 26.4625 148.02 25.6075C148.65 24.7525 148.965 23.605 148.965 22.165C148.965 20.71 148.65 19.5775 148.02 18.7675C147.405 17.9425 146.573 17.365 145.523 17.035C144.488 16.69 143.333 16.5175 142.058 16.5175H138.548V28.015ZM164.534 43.54C162.629 43.54 160.934 43.1125 159.449 42.2575C157.979 41.4025 156.824 40.2475 155.984 38.7925C155.144 37.3225 154.724 35.665 154.724 33.82C154.724 31.975 155.144 30.31 155.984 28.825C156.824 27.34 157.979 26.1625 159.449 25.2925C160.934 24.4225 162.629 23.9875 164.534 23.9875C166.424 23.9875 168.096 24.4225 169.551 25.2925C171.021 26.1625 172.169 27.34 172.994 28.825C173.819 30.31 174.231 31.975 174.231 33.82C174.231 35.665 173.819 37.3225 172.994 38.7925C172.169 40.2475 171.021 41.4025 169.551 42.2575C168.096 43.1125 166.424 43.54 164.534 43.54ZM164.534 40.1875C165.734 40.1875 166.776 39.91 167.661 39.355C168.561 38.8 169.259 38.0425 169.754 37.0825C170.249 36.1075 170.496 35.0125 170.496 33.7975C170.496 32.5825 170.249 31.4875 169.754 30.5125C169.259 29.5375 168.561 28.765 167.661 28.195C166.776 27.625 165.734 27.34 164.534 27.34C163.319 27.34 162.261 27.625 161.361 28.195C160.461 28.765 159.756 29.5375 159.246 30.5125C158.751 31.4875 158.504 32.5825 158.504 33.7975C158.504 35.0125 158.751 36.1075 159.246 37.0825C159.756 38.0425 160.461 38.8 161.361 39.355C162.261 39.91 163.319 40.1875 164.534 40.1875ZM185.501 23.9875C186.461 23.9875 187.354 24.085 188.179 24.28C189.019 24.475 189.739 24.7075 190.339 24.9775C190.954 25.2475 191.389 25.4875 191.644 25.6975L190.091 28.1725C189.791 27.9025 189.251 27.6025 188.471 27.2725C187.691 26.9275 186.821 26.755 185.861 26.755C184.811 26.755 183.919 26.965 183.184 27.385C182.449 27.79 182.081 28.3825 182.081 29.1625C182.081 29.9425 182.456 30.565 183.206 31.03C183.971 31.48 184.991 31.855 186.266 32.155C187.286 32.395 188.239 32.7175 189.124 33.1225C190.024 33.5275 190.751 34.09 191.306 34.81C191.861 35.515 192.139 36.46 192.139 37.645C192.139 38.725 191.914 39.6475 191.464 40.4125C191.014 41.1625 190.406 41.77 189.641 42.235C188.876 42.685 188.021 43.015 187.076 43.225C186.131 43.435 185.171 43.54 184.196 43.54C183.056 43.54 182.029 43.42 181.114 43.18C180.199 42.955 179.426 42.685 178.796 42.37C178.181 42.04 177.731 41.755 177.446 41.515L178.999 38.725C179.389 39.1 180.026 39.4975 180.911 39.9175C181.811 40.3375 182.831 40.5475 183.971 40.5475C185.231 40.5475 186.251 40.285 187.031 39.76C187.811 39.22 188.201 38.5225 188.201 37.6675C188.201 37.0225 188.014 36.505 187.639 36.115C187.264 35.725 186.761 35.41 186.131 35.17C185.501 34.93 184.811 34.72 184.061 34.54C183.341 34.375 182.636 34.1575 181.946 33.8875C181.271 33.6175 180.649 33.2725 180.079 32.8525C179.524 32.4175 179.081 31.8925 178.751 31.2775C178.421 30.6475 178.256 29.9125 178.256 29.0725C178.256 28.0075 178.594 27.1 179.269 26.35C179.944 25.585 180.829 25 181.924 24.595C183.019 24.19 184.211 23.9875 185.501 23.9875ZM194.794 24.5275H198.417V16.945H202.309V24.5275H207.057V27.88H202.309V37.015C202.309 38.095 202.497 38.89 202.872 39.4C203.262 39.91 203.779 40.165 204.424 40.165C204.994 40.165 205.437 40.06 205.752 39.85C206.067 39.64 206.254 39.4975 206.314 39.4225L207.867 42.3025C207.777 42.3775 207.537 42.52 207.147 42.73C206.757 42.94 206.254 43.1275 205.639 43.2925C205.024 43.4575 204.304 43.54 203.479 43.54C202.039 43.54 200.832 43.105 199.857 42.235C198.897 41.35 198.417 39.955 198.417 38.05V27.88H194.794V24.5275Z" fill="#485696"/>
</svg>
