<svg width="341" height="59" viewBox="0 0 341 59" fill="none" xmlns="http://www.w3.org/2000/svg">
<rect x="2" y="2" width="337" height="55" rx="13" stroke="#E16666" stroke-width="4"/>
<path d="M136.038 14.3H139.885V32.75C139.885 35.195 139.398 37.3025 138.423 39.0725C137.448 40.8275 136.105 42.1775 134.395 43.1225C132.7 44.0675 130.758 44.54 128.568 44.54C126.378 44.54 124.42 44.0675 122.695 43.1225C120.985 42.1775 119.643 40.8275 118.668 39.0725C117.693 37.3025 117.205 35.195 117.205 32.75V14.3H121.03V32.5475C121.03 34.2725 121.36 35.765 122.02 37.025C122.68 38.285 123.58 39.26 124.72 39.95C125.86 40.625 127.143 40.9625 128.568 40.9625C129.993 40.9625 131.268 40.625 132.393 39.95C133.518 39.26 134.403 38.285 135.048 37.025C135.708 35.765 136.038 34.2725 136.038 32.5475V14.3ZM155.639 24.9875C156.854 24.9875 158.032 25.2425 159.172 25.7525C160.327 26.2625 161.272 27.0725 162.007 28.1825C162.757 29.2775 163.132 30.71 163.132 32.48V44H159.172V33.245C159.172 31.415 158.744 30.0875 157.889 29.2625C157.034 28.4225 155.932 28.0025 154.582 28.0025C153.697 28.0025 152.842 28.2575 152.017 28.7675C151.207 29.2625 150.539 29.9525 150.014 30.8375C149.489 31.7075 149.227 32.6975 149.227 33.8075V44H145.312V25.5275H149.227V28.8125C149.362 28.3025 149.729 27.7475 150.329 27.1475C150.929 26.5475 151.694 26.0375 152.624 25.6175C153.554 25.1975 154.559 24.9875 155.639 24.9875ZM168.161 44V13.04H172.121V28.9925C172.211 28.5275 172.564 27.98 173.179 27.35C173.794 26.72 174.619 26.1725 175.654 25.7075C176.689 25.2275 177.881 24.9875 179.231 24.9875C180.956 24.9875 182.486 25.4 183.821 26.225C185.156 27.035 186.206 28.175 186.971 29.645C187.751 31.1 188.141 32.81 188.141 34.775C188.141 36.74 187.751 38.4575 186.971 39.9275C186.206 41.3825 185.156 42.515 183.821 43.325C182.486 44.135 180.956 44.54 179.231 44.54C177.956 44.54 176.801 44.3 175.766 43.82C174.746 43.34 173.914 42.7775 173.269 42.1325C172.624 41.4875 172.219 40.91 172.054 40.4V44H168.161ZM184.249 34.775C184.249 33.44 183.979 32.285 183.439 31.31C182.899 30.335 182.179 29.5775 181.279 29.0375C180.394 28.4975 179.419 28.2275 178.354 28.2275C177.199 28.2275 176.149 28.505 175.204 29.06C174.259 29.6 173.509 30.365 172.954 31.355C172.399 32.33 172.121 33.47 172.121 34.775C172.121 36.08 172.399 37.2275 172.954 38.2175C173.509 39.1925 174.259 39.95 175.204 40.49C176.149 41.03 177.199 41.3 178.354 41.3C179.419 41.3 180.394 41.0375 181.279 40.5125C182.179 39.9725 182.899 39.215 183.439 38.24C183.979 37.265 184.249 36.11 184.249 34.775ZM206.7 44V40.4C206.58 40.775 206.227 41.2925 205.642 41.9525C205.072 42.6125 204.285 43.2125 203.28 43.7525C202.29 44.2775 201.12 44.54 199.77 44.54C198.06 44.54 196.507 44.135 195.112 43.325C193.732 42.515 192.63 41.3825 191.805 39.9275C190.995 38.4575 190.59 36.74 190.59 34.775C190.59 32.81 190.995 31.1 191.805 29.645C192.63 28.175 193.732 27.035 195.112 26.225C196.507 25.4 198.06 24.9875 199.77 24.9875C201.105 24.9875 202.26 25.2275 203.235 25.7075C204.225 26.1875 205.012 26.7425 205.597 27.3725C206.197 28.0025 206.55 28.5425 206.655 28.9925V25.5275H210.525V44H206.7ZM194.46 34.775C194.46 36.11 194.752 37.265 195.337 38.24C195.922 39.215 196.68 39.9725 197.61 40.5125C198.555 41.0375 199.56 41.3 200.625 41.3C201.765 41.3 202.785 41.03 203.685 40.49C204.585 39.95 205.297 39.1925 205.822 38.2175C206.347 37.2275 206.61 36.08 206.61 34.775C206.61 33.47 206.347 32.33 205.822 31.355C205.297 30.365 204.585 29.6 203.685 29.06C202.785 28.505 201.765 28.2275 200.625 28.2275C199.56 28.2275 198.555 28.4975 197.61 29.0375C196.68 29.5775 195.922 30.335 195.337 31.31C194.752 32.285 194.46 33.44 194.46 34.775ZM226.084 24.9875C227.299 24.9875 228.476 25.2425 229.616 25.7525C230.771 26.2625 231.716 27.0725 232.451 28.1825C233.201 29.2775 233.576 30.71 233.576 32.48V44H229.616V33.245C229.616 31.415 229.189 30.0875 228.334 29.2625C227.479 28.4225 226.376 28.0025 225.026 28.0025C224.141 28.0025 223.286 28.2575 222.461 28.7675C221.651 29.2625 220.984 29.9525 220.459 30.8375C219.934 31.7075 219.671 32.6975 219.671 33.8075V44H215.756V25.5275H219.671V28.8125C219.806 28.3025 220.174 27.7475 220.774 27.1475C221.374 26.5475 222.139 26.0375 223.069 25.6175C223.999 25.1975 225.004 24.9875 226.084 24.9875Z" fill="#E16666"/>
</svg>
