<svg width="353" height="59" viewBox="0 0 353 59" fill="none" xmlns="http://www.w3.org/2000/svg">
<rect width="353" height="59" rx="15" fill="#485696"/>
<path d="M120.038 14.3H123.885V32.75C123.885 35.195 123.398 37.3025 122.423 39.0725C121.448 40.8275 120.105 42.1775 118.395 43.1225C116.7 44.0675 114.758 44.54 112.568 44.54C110.378 44.54 108.42 44.0675 106.695 43.1225C104.985 42.1775 103.643 40.8275 102.668 39.0725C101.693 37.3025 101.205 35.195 101.205 32.75V14.3H105.03V32.5475C105.03 34.2725 105.36 35.765 106.02 37.025C106.68 38.285 107.58 39.26 108.72 39.95C109.86 40.625 111.143 40.9625 112.568 40.9625C113.993 40.9625 115.268 40.625 116.393 39.95C117.518 39.26 118.403 38.285 119.048 37.025C119.708 35.765 120.038 34.2725 120.038 32.5475V14.3ZM139.639 24.9875C140.854 24.9875 142.032 25.2425 143.172 25.7525C144.327 26.2625 145.272 27.0725 146.007 28.1825C146.757 29.2775 147.132 30.71 147.132 32.48V44H143.172V33.245C143.172 31.415 142.744 30.0875 141.889 29.2625C141.034 28.4225 139.932 28.0025 138.582 28.0025C137.697 28.0025 136.842 28.2575 136.017 28.7675C135.207 29.2625 134.539 29.9525 134.014 30.8375C133.489 31.7075 133.227 32.6975 133.227 33.8075V44H129.312V25.5275H133.227V28.8125C133.362 28.3025 133.729 27.7475 134.329 27.1475C134.929 26.5475 135.694 26.0375 136.624 25.6175C137.554 25.1975 138.559 24.9875 139.639 24.9875ZM150.519 25.5275H154.299V20.285C154.299 18.41 154.621 16.9025 155.266 15.7625C155.926 14.6225 156.759 13.7975 157.764 13.2875C158.784 12.7625 159.826 12.5 160.891 12.5C162.181 12.5 163.171 12.68 163.861 13.04C164.566 13.4 164.986 13.64 165.121 13.76L163.546 16.7525C163.471 16.6625 163.239 16.4975 162.849 16.2575C162.459 16.0175 161.926 15.8975 161.251 15.8975C160.756 15.8975 160.276 16.0175 159.811 16.2575C159.346 16.4975 158.956 16.9625 158.641 17.6525C158.326 18.3425 158.169 19.37 158.169 20.735V25.5275H163.434V28.88H158.169V44H154.299V28.88H150.519V25.5275ZM175.523 44.54C173.618 44.54 171.923 44.1125 170.438 43.2575C168.968 42.4025 167.813 41.2475 166.973 39.7925C166.133 38.3225 165.713 36.665 165.713 34.82C165.713 32.975 166.133 31.31 166.973 29.825C167.813 28.34 168.968 27.1625 170.438 26.2925C171.923 25.4225 173.618 24.9875 175.523 24.9875C177.413 24.9875 179.085 25.4225 180.54 26.2925C182.01 27.1625 183.158 28.34 183.983 29.825C184.808 31.31 185.22 32.975 185.22 34.82C185.22 36.665 184.808 38.3225 183.983 39.7925C183.158 41.2475 182.01 42.4025 180.54 43.2575C179.085 44.1125 177.413 44.54 175.523 44.54ZM175.523 41.1875C176.723 41.1875 177.765 40.91 178.65 40.355C179.55 39.8 180.248 39.0425 180.743 38.0825C181.238 37.1075 181.485 36.0125 181.485 34.7975C181.485 33.5825 181.238 32.4875 180.743 31.5125C180.248 30.5375 179.55 29.765 178.65 29.195C177.765 28.625 176.723 28.34 175.523 28.34C174.308 28.34 173.25 28.625 172.35 29.195C171.45 29.765 170.745 30.5375 170.235 31.5125C169.74 32.4875 169.493 33.5825 169.493 34.7975C169.493 36.0125 169.74 37.1075 170.235 38.0825C170.745 39.0425 171.45 39.8 172.35 40.355C173.25 40.91 174.308 41.1875 175.523 41.1875ZM193.633 44H189.696V13.04H193.633V44ZM203.345 44H199.408V13.04H203.345V44ZM217.535 44.54C215.63 44.54 213.935 44.1125 212.45 43.2575C210.98 42.4025 209.825 41.2475 208.985 39.7925C208.145 38.3225 207.725 36.665 207.725 34.82C207.725 32.975 208.145 31.31 208.985 29.825C209.825 28.34 210.98 27.1625 212.45 26.2925C213.935 25.4225 215.63 24.9875 217.535 24.9875C219.425 24.9875 221.097 25.4225 222.552 26.2925C224.022 27.1625 225.17 28.34 225.995 29.825C226.82 31.31 227.232 32.975 227.232 34.82C227.232 36.665 226.82 38.3225 225.995 39.7925C225.17 41.2475 224.022 42.4025 222.552 43.2575C221.097 44.1125 219.425 44.54 217.535 44.54ZM217.535 41.1875C218.735 41.1875 219.777 40.91 220.662 40.355C221.562 39.8 222.26 39.0425 222.755 38.0825C223.25 37.1075 223.497 36.0125 223.497 34.7975C223.497 33.5825 223.25 32.4875 222.755 31.5125C222.26 30.5375 221.562 29.765 220.662 29.195C219.777 28.625 218.735 28.34 217.535 28.34C216.32 28.34 215.262 28.625 214.362 29.195C213.462 29.765 212.757 30.5375 212.247 31.5125C211.752 32.4875 211.505 33.5825 211.505 34.7975C211.505 36.0125 211.752 37.1075 212.247 38.0825C212.757 39.0425 213.462 39.8 214.362 40.355C215.262 40.91 216.32 41.1875 217.535 41.1875ZM243.745 30.1625L239.042 44H234.992L229.975 25.5275H234.137L237.49 39.725L242.125 25.8875H245.365L249.955 39.725L253.33 25.5275H257.515L252.497 44H248.447L243.745 30.1625Z" fill="#E7E7E7"/>
</svg>
