<svg width="353" height="59" viewBox="0 0 353 59" fill="none" xmlns="http://www.w3.org/2000/svg">
<rect width="353" height="59" rx="15" fill="#485696"/>
<path d="M75.0375 14.3H78.885V32.75C78.885 35.195 78.3975 37.3025 77.4225 39.0725C76.4475 40.8275 75.105 42.1775 73.395 43.1225C71.7 44.0675 69.7575 44.54 67.5675 44.54C65.3775 44.54 63.42 44.0675 61.695 43.1225C59.985 42.1775 58.6425 40.8275 57.6675 39.0725C56.6925 37.3025 56.205 35.195 56.205 32.75V14.3H60.03V32.5475C60.03 34.2725 60.36 35.765 61.02 37.025C61.68 38.285 62.58 39.26 63.72 39.95C64.86 40.625 66.1425 40.9625 67.5675 40.9625C68.9925 40.9625 70.2675 40.625 71.3925 39.95C72.5175 39.26 73.4025 38.285 74.0475 37.025C74.7075 35.765 75.0375 34.2725 75.0375 32.5475V14.3ZM88.2717 53.36H84.3792V25.5275H88.3392V28.9925C88.4742 28.5275 88.8492 27.98 89.4642 27.35C90.0792 26.72 90.9042 26.1725 91.9392 25.7075C92.9892 25.2275 94.1892 24.9875 95.5392 24.9875C97.2492 24.9875 98.7642 25.4 100.084 26.225C101.419 27.035 102.462 28.175 103.212 29.645C103.977 31.1 104.359 32.81 104.359 34.775C104.359 36.74 103.969 38.4575 103.189 39.9275C102.409 41.3825 101.344 42.515 99.9942 43.325C98.6592 44.135 97.1292 44.54 95.4042 44.54C94.0092 44.54 92.7867 44.2775 91.7367 43.7525C90.7017 43.2275 89.8842 42.635 89.2842 41.975C88.6992 41.315 88.3617 40.79 88.2717 40.4V53.36ZM100.489 34.775C100.489 33.44 100.212 32.285 99.6567 31.31C99.1167 30.335 98.3967 29.5775 97.4967 29.0375C96.5967 28.4975 95.6217 28.2275 94.5717 28.2275C93.4167 28.2275 92.3667 28.505 91.4217 29.06C90.4767 29.6 89.7267 30.365 89.1717 31.355C88.6167 32.33 88.3392 33.47 88.3392 34.775C88.3392 36.08 88.6167 37.2275 89.1717 38.2175C89.7267 39.1925 90.4767 39.95 91.4217 40.49C92.3667 41.03 93.4167 41.3 94.5717 41.3C95.6217 41.3 96.5967 41.0375 97.4967 40.5125C98.3967 39.9725 99.1167 39.215 99.6567 38.24C100.212 37.265 100.489 36.11 100.489 34.775ZM112.51 44H108.573V13.04H112.51V44ZM126.7 44.54C124.795 44.54 123.1 44.1125 121.615 43.2575C120.145 42.4025 118.99 41.2475 118.15 39.7925C117.31 38.3225 116.89 36.665 116.89 34.82C116.89 32.975 117.31 31.31 118.15 29.825C118.99 28.34 120.145 27.1625 121.615 26.2925C123.1 25.4225 124.795 24.9875 126.7 24.9875C128.59 24.9875 130.262 25.4225 131.717 26.2925C133.187 27.1625 134.335 28.34 135.16 29.825C135.985 31.31 136.397 32.975 136.397 34.82C136.397 36.665 135.985 38.3225 135.16 39.7925C134.335 41.2475 133.187 42.4025 131.717 43.2575C130.262 44.1125 128.59 44.54 126.7 44.54ZM126.7 41.1875C127.9 41.1875 128.942 40.91 129.827 40.355C130.727 39.8 131.425 39.0425 131.92 38.0825C132.415 37.1075 132.662 36.0125 132.662 34.7975C132.662 33.5825 132.415 32.4875 131.92 31.5125C131.425 30.5375 130.727 29.765 129.827 29.195C128.942 28.625 127.9 28.34 126.7 28.34C125.485 28.34 124.427 28.625 123.527 29.195C122.627 29.765 121.922 30.5375 121.412 31.5125C120.917 32.4875 120.67 33.5825 120.67 34.7975C120.67 36.0125 120.917 37.1075 121.412 38.0825C121.922 39.0425 122.627 39.8 123.527 40.355C124.427 40.91 125.485 41.1875 126.7 41.1875ZM155.588 44V40.4C155.468 40.775 155.115 41.2925 154.53 41.9525C153.96 42.6125 153.173 43.2125 152.168 43.7525C151.178 44.2775 150.008 44.54 148.658 44.54C146.948 44.54 145.395 44.135 144 43.325C142.62 42.515 141.518 41.3825 140.693 39.9275C139.883 38.4575 139.478 36.74 139.478 34.775C139.478 32.81 139.883 31.1 140.693 29.645C141.518 28.175 142.62 27.035 144 26.225C145.395 25.4 146.948 24.9875 148.658 24.9875C149.993 24.9875 151.148 25.2275 152.123 25.7075C153.113 26.1875 153.9 26.7425 154.485 27.3725C155.085 28.0025 155.438 28.5425 155.543 28.9925V25.5275H159.413V44H155.588ZM143.348 34.775C143.348 36.11 143.64 37.265 144.225 38.24C144.81 39.215 145.568 39.9725 146.498 40.5125C147.443 41.0375 148.448 41.3 149.513 41.3C150.653 41.3 151.673 41.03 152.573 40.49C153.473 39.95 154.185 39.1925 154.71 38.2175C155.235 37.2275 155.498 36.08 155.498 34.775C155.498 33.47 155.235 32.33 154.71 31.355C154.185 30.365 153.473 29.6 152.573 29.06C151.673 28.505 150.653 28.2275 149.513 28.2275C148.448 28.2275 147.443 28.4975 146.498 29.0375C145.568 29.5775 144.81 30.335 144.225 31.31C143.64 32.285 143.348 33.44 143.348 34.775ZM172.789 44.54C171.094 44.54 169.571 44.135 168.221 43.325C166.886 42.515 165.829 41.3825 165.049 39.9275C164.284 38.4575 163.901 36.74 163.901 34.775C163.901 32.81 164.284 31.1 165.049 29.645C165.829 28.175 166.886 27.035 168.221 26.225C169.571 25.4 171.094 24.9875 172.789 24.9875C174.154 24.9875 175.354 25.2275 176.389 25.7075C177.424 26.1725 178.249 26.72 178.864 27.35C179.479 27.98 179.831 28.5275 179.921 28.9925V13.04H183.859V44H179.989V40.4C179.824 40.91 179.411 41.4875 178.751 42.1325C178.106 42.7775 177.274 43.34 176.254 43.82C175.234 44.3 174.079 44.54 172.789 44.54ZM173.689 41.3C174.829 41.3 175.871 41.03 176.816 40.49C177.761 39.95 178.511 39.1925 179.066 38.2175C179.636 37.2275 179.921 36.08 179.921 34.775C179.921 33.47 179.636 32.33 179.066 31.355C178.511 30.365 177.761 29.6 176.816 29.06C175.871 28.505 174.829 28.2275 173.689 28.2275C172.639 28.2275 171.664 28.4975 170.764 29.0375C169.864 29.5775 169.136 30.335 168.581 31.31C168.041 32.285 167.771 33.44 167.771 34.775C167.771 36.11 168.041 37.265 168.581 38.24C169.136 39.215 169.864 39.9725 170.764 40.5125C171.664 41.0375 172.639 41.3 173.689 41.3ZM203.408 53.36H199.516V25.5275H203.476V28.9925C203.611 28.5275 203.986 27.98 204.601 27.35C205.216 26.72 206.041 26.1725 207.076 25.7075C208.126 25.2275 209.326 24.9875 210.676 24.9875C212.386 24.9875 213.901 25.4 215.221 26.225C216.556 27.035 217.598 28.175 218.348 29.645C219.113 31.1 219.496 32.81 219.496 34.775C219.496 36.74 219.106 38.4575 218.326 39.9275C217.546 41.3825 216.481 42.515 215.131 43.325C213.796 44.135 212.266 44.54 210.541 44.54C209.146 44.54 207.923 44.2775 206.873 43.7525C205.838 43.2275 205.021 42.635 204.421 41.975C203.836 41.315 203.498 40.79 203.408 40.4V53.36ZM215.626 34.775C215.626 33.44 215.348 32.285 214.793 31.31C214.253 30.335 213.533 29.5775 212.633 29.0375C211.733 28.4975 210.758 28.2275 209.708 28.2275C208.553 28.2275 207.503 28.505 206.558 29.06C205.613 29.6 204.863 30.365 204.308 31.355C203.753 32.33 203.476 33.47 203.476 34.775C203.476 36.08 203.753 37.2275 204.308 38.2175C204.863 39.1925 205.613 39.95 206.558 40.49C207.503 41.03 208.553 41.3 209.708 41.3C210.758 41.3 211.733 41.0375 212.633 40.5125C213.533 39.9725 214.253 39.215 214.793 38.24C215.348 37.265 215.626 36.11 215.626 34.775ZM234.037 24.9875C235.252 24.9875 236.429 25.2425 237.569 25.7525C238.724 26.2625 239.669 27.0725 240.404 28.1825C241.154 29.2775 241.529 30.71 241.529 32.48V44H237.569V33.245C237.569 31.415 237.149 30.0875 236.309 29.2625C235.484 28.4225 234.397 28.0025 233.047 28.0025C232.147 28.0025 231.284 28.2575 230.459 28.7675C229.634 29.2625 228.952 29.9525 228.412 30.8375C227.887 31.7075 227.624 32.6975 227.624 33.8075V44H223.664V13.04H227.624V28.8125C227.759 28.3025 228.119 27.7475 228.704 27.1475C229.304 26.5475 230.069 26.0375 230.999 25.6175C231.929 25.1975 232.942 24.9875 234.037 24.9875ZM255.371 44.54C253.466 44.54 251.771 44.1125 250.286 43.2575C248.816 42.4025 247.661 41.2475 246.821 39.7925C245.981 38.3225 245.561 36.665 245.561 34.82C245.561 32.975 245.981 31.31 246.821 29.825C247.661 28.34 248.816 27.1625 250.286 26.2925C251.771 25.4225 253.466 24.9875 255.371 24.9875C257.261 24.9875 258.934 25.4225 260.389 26.2925C261.859 27.1625 263.006 28.34 263.831 29.825C264.656 31.31 265.069 32.975 265.069 34.82C265.069 36.665 264.656 38.3225 263.831 39.7925C263.006 41.2475 261.859 42.4025 260.389 43.2575C258.934 44.1125 257.261 44.54 255.371 44.54ZM255.371 41.1875C256.571 41.1875 257.614 40.91 258.499 40.355C259.399 39.8 260.096 39.0425 260.591 38.0825C261.086 37.1075 261.334 36.0125 261.334 34.7975C261.334 33.5825 261.086 32.4875 260.591 31.5125C260.096 30.5375 259.399 29.765 258.499 29.195C257.614 28.625 256.571 28.34 255.371 28.34C254.156 28.34 253.099 28.625 252.199 29.195C251.299 29.765 250.594 30.5375 250.084 31.5125C249.589 32.4875 249.341 33.5825 249.341 34.7975C249.341 36.0125 249.589 37.1075 250.084 38.0825C250.594 39.0425 251.299 39.8 252.199 40.355C253.099 40.91 254.156 41.1875 255.371 41.1875ZM267.834 25.5275H271.457V17.945H275.349V25.5275H280.097V28.88H275.349V38.015C275.349 39.095 275.537 39.89 275.912 40.4C276.302 40.91 276.819 41.165 277.464 41.165C278.034 41.165 278.477 41.06 278.792 40.85C279.107 40.64 279.294 40.4975 279.354 40.4225L280.907 43.3025C280.817 43.3775 280.577 43.52 280.187 43.73C279.797 43.94 279.294 44.1275 278.679 44.2925C278.064 44.4575 277.344 44.54 276.519 44.54C275.079 44.54 273.872 44.105 272.897 43.235C271.937 42.35 271.457 40.955 271.457 39.05V28.88H267.834V25.5275ZM292.857 44.54C290.952 44.54 289.257 44.1125 287.772 43.2575C286.302 42.4025 285.147 41.2475 284.307 39.7925C283.467 38.3225 283.047 36.665 283.047 34.82C283.047 32.975 283.467 31.31 284.307 29.825C285.147 28.34 286.302 27.1625 287.772 26.2925C289.257 25.4225 290.952 24.9875 292.857 24.9875C294.747 24.9875 296.419 25.4225 297.874 26.2925C299.344 27.1625 300.492 28.34 301.317 29.825C302.142 31.31 302.554 32.975 302.554 34.82C302.554 36.665 302.142 38.3225 301.317 39.7925C300.492 41.2475 299.344 42.4025 297.874 43.2575C296.419 44.1125 294.747 44.54 292.857 44.54ZM292.857 41.1875C294.057 41.1875 295.099 40.91 295.984 40.355C296.884 39.8 297.582 39.0425 298.077 38.0825C298.572 37.1075 298.819 36.0125 298.819 34.7975C298.819 33.5825 298.572 32.4875 298.077 31.5125C297.582 30.5375 296.884 29.765 295.984 29.195C295.099 28.625 294.057 28.34 292.857 28.34C291.642 28.34 290.584 28.625 289.684 29.195C288.784 29.765 288.079 30.5375 287.569 31.5125C287.074 32.4875 286.827 33.5825 286.827 34.7975C286.827 36.0125 287.074 37.1075 287.569 38.0825C288.079 39.0425 288.784 39.8 289.684 40.355C290.584 40.91 291.642 41.1875 292.857 41.1875Z" fill="#E7E7E7"/>
</svg>
