<svg width="341" height="59" viewBox="0 0 341 59" fill="none" xmlns="http://www.w3.org/2000/svg">
<rect x="2" y="2" width="337" height="55" rx="13" stroke="#485696" stroke-width="4"/>
<path d="M101.038 13.3H104.885V31.75C104.885 34.195 104.398 36.3025 103.423 38.0725C102.448 39.8275 101.105 41.1775 99.395 42.1225C97.7 43.0675 95.7575 43.54 93.5675 43.54C91.3775 43.54 89.42 43.0675 87.695 42.1225C85.985 41.1775 84.6425 39.8275 83.6675 38.0725C82.6925 36.3025 82.205 34.195 82.205 31.75V13.3H86.03V31.5475C86.03 33.2725 86.36 34.765 87.02 36.025C87.68 37.285 88.58 38.26 89.72 38.95C90.86 39.625 92.1425 39.9625 93.5675 39.9625C94.9925 39.9625 96.2675 39.625 97.3925 38.95C98.5175 38.26 99.4025 37.285 100.048 36.025C100.708 34.765 101.038 33.2725 101.038 31.5475V13.3ZM117.242 23.9875C118.202 23.9875 119.094 24.085 119.919 24.28C120.759 24.475 121.479 24.7075 122.079 24.9775C122.694 25.2475 123.129 25.4875 123.384 25.6975L121.832 28.1725C121.532 27.9025 120.992 27.6025 120.212 27.2725C119.432 26.9275 118.562 26.755 117.602 26.755C116.552 26.755 115.659 26.965 114.924 27.385C114.189 27.79 113.822 28.3825 113.822 29.1625C113.822 29.9425 114.197 30.565 114.947 31.03C115.712 31.48 116.732 31.855 118.007 32.155C119.027 32.395 119.979 32.7175 120.864 33.1225C121.764 33.5275 122.492 34.09 123.047 34.81C123.602 35.515 123.879 36.46 123.879 37.645C123.879 38.725 123.654 39.6475 123.204 40.4125C122.754 41.1625 122.147 41.77 121.382 42.235C120.617 42.685 119.762 43.015 118.817 43.225C117.872 43.435 116.912 43.54 115.937 43.54C114.797 43.54 113.769 43.42 112.854 43.18C111.939 42.955 111.167 42.685 110.537 42.37C109.922 42.04 109.472 41.755 109.187 41.515L110.739 38.725C111.129 39.1 111.767 39.4975 112.652 39.9175C113.552 40.3375 114.572 40.5475 115.712 40.5475C116.972 40.5475 117.992 40.285 118.772 39.76C119.552 39.22 119.942 38.5225 119.942 37.6675C119.942 37.0225 119.754 36.505 119.379 36.115C119.004 35.725 118.502 35.41 117.872 35.17C117.242 34.93 116.552 34.72 115.802 34.54C115.082 34.375 114.377 34.1575 113.687 33.8875C113.012 33.6175 112.389 33.2725 111.819 32.8525C111.264 32.4175 110.822 31.8925 110.492 31.2775C110.162 30.6475 109.997 29.9125 109.997 29.0725C109.997 28.0075 110.334 27.1 111.009 26.35C111.684 25.585 112.569 25 113.664 24.595C114.759 24.19 115.952 23.9875 117.242 23.9875ZM130.87 34.5625C130.885 35.6725 131.125 36.685 131.59 37.6C132.055 38.515 132.745 39.2425 133.66 39.7825C134.59 40.3225 135.73 40.5925 137.08 40.5925C138.22 40.5925 139.187 40.4275 139.982 40.0975C140.792 39.7525 141.452 39.3475 141.962 38.8825C142.472 38.4025 142.84 37.975 143.065 37.6L144.977 39.9625C144.482 40.6825 143.875 41.3125 143.155 41.8525C142.45 42.3925 141.587 42.805 140.567 43.09C139.547 43.39 138.302 43.54 136.832 43.54C134.852 43.54 133.135 43.12 131.68 42.28C130.24 41.425 129.13 40.2475 128.35 38.7475C127.57 37.2325 127.18 35.5 127.18 33.55C127.18 31.75 127.547 30.13 128.282 28.69C129.017 27.235 130.082 26.0875 131.477 25.2475C132.887 24.4075 134.582 23.9875 136.562 23.9875C138.377 23.9875 139.952 24.37 141.287 25.135C142.637 25.885 143.68 26.95 144.415 28.33C145.165 29.71 145.54 31.36 145.54 33.28C145.54 33.4 145.532 33.6175 145.517 33.9325C145.502 34.2325 145.487 34.4425 145.472 34.5625H130.87ZM141.805 31.615C141.79 31 141.61 30.325 141.265 29.59C140.935 28.855 140.395 28.225 139.645 27.7C138.895 27.175 137.882 26.9125 136.607 26.9125C135.287 26.9125 134.222 27.1675 133.412 27.6775C132.617 28.1875 132.032 28.81 131.657 29.545C131.282 30.265 131.065 30.955 131.005 31.615H141.805ZM153.71 43H149.818V24.5275H153.71V27.7225H153.598C153.673 27.3325 153.95 26.845 154.43 26.26C154.91 25.675 155.57 25.15 156.41 24.685C157.25 24.22 158.255 23.9875 159.425 23.9875C160.28 23.9875 161.03 24.1075 161.675 24.3475C162.335 24.5725 162.8 24.7975 163.07 25.0225L161.473 28.2625C161.263 28.0525 160.895 27.8425 160.37 27.6325C159.845 27.4075 159.193 27.295 158.413 27.295C157.423 27.295 156.575 27.6025 155.87 28.2175C155.165 28.8325 154.625 29.575 154.25 30.445C153.89 31.3 153.71 32.095 153.71 32.83V43ZM175.922 23.9875C177.137 23.9875 178.315 24.2425 179.455 24.7525C180.61 25.2625 181.555 26.0725 182.29 27.1825C183.04 28.2775 183.415 29.71 183.415 31.48V43H179.455V32.245C179.455 30.415 179.027 29.0875 178.172 28.2625C177.317 27.4225 176.215 27.0025 174.865 27.0025C173.98 27.0025 173.125 27.2575 172.3 27.7675C171.49 28.2625 170.822 28.9525 170.297 29.8375C169.772 30.7075 169.51 31.6975 169.51 32.8075V43H165.595V24.5275H169.51V27.8125C169.645 27.3025 170.012 26.7475 170.612 26.1475C171.212 25.5475 171.977 25.0375 172.907 24.6175C173.837 24.1975 174.842 23.9875 175.922 23.9875ZM203.384 43V39.4C203.264 39.775 202.912 40.2925 202.327 40.9525C201.757 41.6125 200.969 42.2125 199.964 42.7525C198.974 43.2775 197.804 43.54 196.454 43.54C194.744 43.54 193.192 43.135 191.797 42.325C190.417 41.515 189.314 40.3825 188.489 38.9275C187.679 37.4575 187.274 35.74 187.274 33.775C187.274 31.81 187.679 30.1 188.489 28.645C189.314 27.175 190.417 26.035 191.797 25.225C193.192 24.4 194.744 23.9875 196.454 23.9875C197.789 23.9875 198.944 24.2275 199.919 24.7075C200.909 25.1875 201.697 25.7425 202.282 26.3725C202.882 27.0025 203.234 27.5425 203.339 27.9925V24.5275H207.209V43H203.384ZM191.144 33.775C191.144 35.11 191.437 36.265 192.022 37.24C192.607 38.215 193.364 38.9725 194.294 39.5125C195.239 40.0375 196.244 40.3 197.309 40.3C198.449 40.3 199.469 40.03 200.369 39.49C201.269 38.95 201.982 38.1925 202.507 37.2175C203.032 36.2275 203.294 35.08 203.294 33.775C203.294 32.47 203.032 31.33 202.507 30.355C201.982 29.365 201.269 28.6 200.369 28.06C199.469 27.505 198.449 27.2275 197.309 27.2275C196.244 27.2275 195.239 27.4975 194.294 28.0375C193.364 28.5775 192.607 29.335 192.022 30.31C191.437 31.285 191.144 32.44 191.144 33.775ZM234.603 23.9875C235.968 23.9875 237.138 24.2875 238.113 24.8875C239.088 25.4725 239.831 26.3725 240.341 27.5875C240.866 28.8025 241.128 30.355 241.128 32.245V43H237.258V33.0325C237.258 31.0375 236.981 29.5375 236.426 28.5325C235.871 27.5275 234.858 27.025 233.388 27.025C232.608 27.025 231.858 27.2425 231.138 27.6775C230.433 28.0975 229.848 28.75 229.383 29.635C228.933 30.52 228.708 31.6525 228.708 33.0325V43H225.063V33.0325C225.063 31.0375 224.718 29.5375 224.028 28.5325C223.338 27.5275 222.371 27.025 221.126 27.025C220.331 27.025 219.581 27.235 218.876 27.655C218.186 28.06 217.623 28.705 217.188 29.59C216.753 30.475 216.536 31.6225 216.536 33.0325V43H212.643V24.5275H216.536V27.3625C216.701 26.8975 217.053 26.4025 217.593 25.8775C218.148 25.3525 218.853 24.91 219.708 24.55C220.578 24.175 221.546 23.9875 222.611 23.9875C223.721 23.9875 224.651 24.2125 225.401 24.6625C226.151 25.1125 226.743 25.6675 227.178 26.3275C227.613 26.9725 227.913 27.595 228.078 28.195C228.288 27.55 228.693 26.905 229.293 26.26C229.893 25.6 230.651 25.06 231.566 24.64C232.481 24.205 233.493 23.9875 234.603 23.9875ZM248.995 34.5625C249.01 35.6725 249.25 36.685 249.715 37.6C250.18 38.515 250.87 39.2425 251.785 39.7825C252.715 40.3225 253.855 40.5925 255.205 40.5925C256.345 40.5925 257.312 40.4275 258.107 40.0975C258.917 39.7525 259.577 39.3475 260.087 38.8825C260.597 38.4025 260.965 37.975 261.19 37.6L263.102 39.9625C262.607 40.6825 262 41.3125 261.28 41.8525C260.575 42.3925 259.712 42.805 258.692 43.09C257.672 43.39 256.427 43.54 254.957 43.54C252.977 43.54 251.26 43.12 249.805 42.28C248.365 41.425 247.255 40.2475 246.475 38.7475C245.695 37.2325 245.305 35.5 245.305 33.55C245.305 31.75 245.672 30.13 246.407 28.69C247.142 27.235 248.207 26.0875 249.602 25.2475C251.012 24.4075 252.707 23.9875 254.687 23.9875C256.502 23.9875 258.077 24.37 259.412 25.135C260.762 25.885 261.805 26.95 262.54 28.33C263.29 29.71 263.665 31.36 263.665 33.28C263.665 33.4 263.657 33.6175 263.642 33.9325C263.627 34.2325 263.612 34.4425 263.597 34.5625H248.995ZM259.93 31.615C259.915 31 259.735 30.325 259.39 29.59C259.06 28.855 258.52 28.225 257.77 27.7C257.02 27.175 256.007 26.9125 254.732 26.9125C253.412 26.9125 252.347 27.1675 251.537 27.6775C250.742 28.1875 250.157 28.81 249.782 29.545C249.407 30.265 249.19 30.955 249.13 31.615H259.93Z" fill="#485696"/>
</svg>
